<?xml version="1.0" encoding="UTF-8" standalone="no"?><svg xmlns="http://www.w3.org/2000/svg" xmlns:xlink="http://www.w3.org/1999/xlink" height="427" version="1.1" width="677.1689453125"><defs/><g><g transform="translate(-5,-6) scale(1,1)"><rect fill="#C0C0C0" height="15" opacity="0.2" stroke="none" width="125.19999999999999" x="22" y="376"/></g><g transform="translate(-5,-6) scale(1,1)"><rect fill="#C0C0C0" height="40" opacity="0.2" stroke="none" width="313" x="22" y="390"/></g><g transform="translate(-5,-6) scale(1,1)"><rect fill="#ffffff" height="39" stroke="none" width="313" x="15" y="384"/></g><g transform="translate(-5,-6) scale(1,1)"><path d="M 15 384 L 328 384 L 328 423 L 15 423 L 15 384 Z Z" fill="none" stroke="#000000" stroke-miterlimit="10"/></g><g transform="translate(-5,-6) scale(1,1)"><rect fill="#ffffff" height="15" stroke="none" width="125.19999999999999" x="15" y="369"/></g><g transform="translate(-5,-6) scale(1,1)"><path d="M 15 369 L 140.2 369 L 140.2 384 L 15 384 L 15 369 Z Z" fill="none" stroke="#000000" stroke-miterlimit="10"/></g><g transform="translate(-5,-6) scale(1,1)"><rect fill="#ffffff" height="40" stroke="none" width="313" x="15" y="383"/></g><g transform="translate(-5,-6) scale(1,1)"><path d="M 15 383 L 328 383 L 328 423 L 15 423 L 15 383 Z Z" fill="none" stroke="#000000" stroke-miterlimit="10"/></g><g transform="translate(-5,-6) scale(1,1)"><path d="M 131.2 372 L 125.19999999999999 379 L 137.2 379 L 131.2 372" fill="none" stroke="#000000" stroke-miterlimit="10"/></g><g transform="translate(-5,-6) scale(1,1)"><g><path fill="none" stroke="none"/><text fill="#000000" font-family="Arial" font-size="13px" font-style="normal" font-weight="bold" stroke="none" text-decoration="none" x="136.4609375" y="403.5">RestService</text></g></g><g transform="translate(-5,-6) scale(1,1)"><g><path fill="none" stroke="none"/><text fill="#000000" font-family="Arial" font-size="13px" font-style="normal" font-weight="normal" stroke="none" text-decoration="none" x="71.083251953125" y="418.5">(from ComputerNetworkingProject)</text></g></g><g transform="translate(-5,-6) scale(1,1)"><rect fill="#C0C0C0" height="15" opacity="0.2" stroke="none" width="30.1865234375" x="31" y="247"/></g><g transform="translate(-5,-6) scale(1,1)"><rect fill="#C0C0C0" height="25" opacity="0.2" stroke="none" width="75.46630859375" x="31" y="261"/></g><g transform="translate(-5,-6) scale(1,1)"><rect fill="#ffffff" height="24" stroke="none" width="75.46630859375" x="24" y="255"/></g><g transform="translate(-5,-6) scale(1,1)"><path d="M 24 255 L 99.46630859375 255 L 99.46630859375 279 L 24 279 L 24 255 Z Z" fill="none" stroke="#000000" stroke-miterlimit="10"/></g><g transform="translate(-5,-6) scale(1,1)"><rect fill="#ffffff" height="15" stroke="none" width="30.1865234375" x="24" y="240"/></g><g transform="translate(-5,-6) scale(1,1)"><path d="M 24 240 L 54.1865234375 240 L 54.1865234375 255 L 24 255 L 24 240 Z Z" fill="none" stroke="#000000" stroke-miterlimit="10"/></g><g transform="translate(-5,-6) scale(1,1)"><rect fill="#ffffff" height="25" stroke="none" width="75.46630859375" x="24" y="254"/></g><g transform="translate(-5,-6) scale(1,1)"><path d="M 24 254 L 99.46630859375 254 L 99.46630859375 279 L 24 279 L 24 254 Z Z" fill="none" stroke="#000000" stroke-miterlimit="10"/></g><g transform="translate(-5,-6) scale(1,1)"><path d="M 46.1865234375 243 L 46.1865234375 247" fill="none" stroke="#000000" stroke-miterlimit="10"/></g><g transform="translate(-5,-6) scale(1,1)"><path d="M 43.1865234375 251 L 43.1865234375 247 L 49.1865234375 247" fill="none" stroke="#000000" stroke-miterlimit="10"/></g><g transform="translate(-5,-6) scale(1,1)"><path d="M 49.1865234375 251 L 49.1865234375 247 L 43.1865234375 247" fill="none" stroke="#000000" stroke-miterlimit="10"/></g><g transform="translate(-5,-6) scale(1,1)"><g><path fill="none" stroke="none"/><text fill="#000000" font-family="Arial" font-size="13px" font-style="normal" font-weight="bold" stroke="none" text-decoration="none" x="30.667724609375" y="274.5">HttpServer</text></g></g><g transform="translate(-5,-6) scale(1,1)"><path d="M 76 369 L 76 279" fill="none" stroke="#000000" stroke-dasharray="3" stroke-miterlimit="10"/></g><g transform="translate(-5,-6) scale(1,1)"><path d="M 80.20951775601598 289.16267485762415 L 76 279 L 71.79048224398402 289.16267485762415" fill="none" stroke="#000000" stroke-miterlimit="10"/></g><g transform="translate(-5,-6) scale(1,1)"><rect fill="#C0C0C0" height="15" opacity="0.2" stroke="none" width="71.7865234375" x="151" y="135"/></g><g transform="translate(-5,-6) scale(1,1)"><rect fill="#C0C0C0" height="25" opacity="0.2" stroke="none" width="179.46630859375" x="151" y="149"/></g><g transform="translate(-5,-6) scale(1,1)"><rect fill="#ffffff" height="24" stroke="none" width="179.46630859375" x="144" y="143"/></g><g transform="translate(-5,-6) scale(1,1)"><path d="M 144 143 L 323.46630859375 143 L 323.46630859375 167 L 144 167 L 144 143 Z Z" fill="none" stroke="#000000" stroke-miterlimit="10"/></g><g transform="translate(-5,-6) scale(1,1)"><rect fill="#ffffff" height="15" stroke="none" width="71.7865234375" x="144" y="128"/></g><g transform="translate(-5,-6) scale(1,1)"><path d="M 144 128 L 215.7865234375 128 L 215.7865234375 143 L 144 143 L 144 128 Z Z" fill="none" stroke="#000000" stroke-miterlimit="10"/></g><g transform="translate(-5,-6) scale(1,1)"><rect fill="#ffffff" height="25" stroke="none" width="179.46630859375" x="144" y="142"/></g><g transform="translate(-5,-6) scale(1,1)"><path d="M 144 142 L 323.46630859375 142 L 323.46630859375 167 L 144 167 L 144 142 Z Z" fill="none" stroke="#000000" stroke-miterlimit="10"/></g><g transform="translate(-5,-6) scale(1,1)"><path d="M 207.7865234375 131 L 207.7865234375 135" fill="none" stroke="#000000" stroke-miterlimit="10"/></g><g transform="translate(-5,-6) scale(1,1)"><path d="M 204.7865234375 139 L 204.7865234375 135 L 210.7865234375 135" fill="none" stroke="#000000" stroke-miterlimit="10"/></g><g transform="translate(-5,-6) scale(1,1)"><path d="M 210.7865234375 139 L 210.7865234375 135 L 204.7865234375 135" fill="none" stroke="#000000" stroke-miterlimit="10"/></g><g transform="translate(-5,-6) scale(1,1)"><g><path fill="none" stroke="none"/><text fill="#000000" font-family="Arial" font-size="13px" font-style="normal" font-weight="bold" stroke="none" text-decoration="none" x="154.609619140625" y="162.5">BuildingManagmentSystem</text></g></g><g transform="translate(-5,-6) scale(1,1)"><path d="M 228 369 L 228 167" fill="none" stroke="#000000" stroke-dasharray="3" stroke-miterlimit="10"/></g><g transform="translate(-5,-6) scale(1,1)"><path d="M 232.209517756016 177.16267485762415 L 228 167 L 223.790482243984 177.16267485762415" fill="none" stroke="#000000" stroke-miterlimit="10"/></g><g transform="translate(-5,-6) scale(1,1)"><rect fill="#C0C0C0" height="15" opacity="0.2" stroke="none" width="27.5966796875" x="31" y="135"/></g><g transform="translate(-5,-6) scale(1,1)"><rect fill="#C0C0C0" height="25" opacity="0.2" stroke="none" width="68.99169921875" x="31" y="149"/></g><g transform="translate(-5,-6) scale(1,1)"><rect fill="#ffffff" height="24" stroke="none" width="68.99169921875" x="24" y="143"/></g><g transform="translate(-5,-6) scale(1,1)"><path d="M 24 143 L 92.99169921875 143 L 92.99169921875 167 L 24 167 L 24 143 Z Z" fill="none" stroke="#000000" stroke-miterlimit="10"/></g><g transform="translate(-5,-6) scale(1,1)"><rect fill="#ffffff" height="15" stroke="none" width="27.5966796875" x="24" y="128"/></g><g transform="translate(-5,-6) scale(1,1)"><path d="M 24 128 L 51.5966796875 128 L 51.5966796875 143 L 24 143 L 24 128 Z Z" fill="none" stroke="#000000" stroke-miterlimit="10"/></g><g transform="translate(-5,-6) scale(1,1)"><rect fill="#ffffff" height="25" stroke="none" width="68.99169921875" x="24" y="142"/></g><g transform="translate(-5,-6) scale(1,1)"><path d="M 24 142 L 92.99169921875 142 L 92.99169921875 167 L 24 167 L 24 142 Z Z" fill="none" stroke="#000000" stroke-miterlimit="10"/></g><g transform="translate(-5,-6) scale(1,1)"><g><path fill="none" stroke="none"/><text fill="#000000" font-family="Arial" font-size="13px" font-style="normal" font-weight="bold" stroke="none" text-decoration="none" x="42.594970703125" y="162.5">boost</text></g></g><g transform="translate(-5,-6) scale(1,1)"><path d="M 60 239 L 59 168" fill="none" stroke="#000000" stroke-dasharray="3" stroke-miterlimit="10"/></g><g transform="translate(-5,-6) scale(1,1)"><path d="M 63.35222236058273 178.1023839030223 L 59 168 L 54.934021780422896 178.22095010837666" fill="none" stroke="#000000" stroke-miterlimit="10"/></g><g transform="translate(-5,-6) scale(1,1)"><path d="M 144 147 L 93 147" fill="none" stroke="#000000" stroke-dasharray="3" stroke-miterlimit="10"/></g><g transform="translate(-5,-6) scale(1,1)"><path d="M 103.16267485762415 142.790482243984 L 93 147 L 103.16267485762415 151.209517756016" fill="none" stroke="#000000" stroke-miterlimit="10"/></g><g transform="translate(-5,-6) scale(1,1)"><rect fill="#C0C0C0" height="15" opacity="0.2" stroke="none" width="96.06757812499995" x="439" y="135"/></g><g transform="translate(-5,-6) scale(1,1)"><rect fill="#C0C0C0" height="25" opacity="0.2" stroke="none" width="240.1689453125" x="439" y="149"/></g><g transform="translate(-5,-6) scale(1,1)"><rect fill="#ffffff" height="24" stroke="none" width="240.1689453125" x="432" y="143"/></g><g transform="translate(-5,-6) scale(1,1)"><path d="M 432 143 L 672.1689453125 143 L 672.1689453125 167 L 432 167 L 432 143 Z Z" fill="none" stroke="#000000" stroke-miterlimit="10"/></g><g transform="translate(-5,-6) scale(1,1)"><rect fill="#ffffff" height="15" stroke="none" width="96.06757812499995" x="432" y="128"/></g><g transform="translate(-5,-6) scale(1,1)"><path d="M 432 128 L 528.067578125 128 L 528.067578125 143 L 432 143 L 432 128 Z Z" fill="none" stroke="#000000" stroke-miterlimit="10"/></g><g transform="translate(-5,-6) scale(1,1)"><rect fill="#ffffff" height="25" stroke="none" width="240.1689453125" x="432" y="142"/></g><g transform="translate(-5,-6) scale(1,1)"><path d="M 432 142 L 672.1689453125 142 L 672.1689453125 167 L 432 167 L 432 142 Z Z" fill="none" stroke="#000000" stroke-miterlimit="10"/></g><g transform="translate(-5,-6) scale(1,1)"><g><path fill="none" stroke="none"/><text fill="#000000" font-family="Arial" font-size="13px" font-style="normal" font-weight="bold" stroke="none" text-decoration="none" x="445.12646484375" y="162.5">Json_for_modern_cpp_by_nlhomans</text></g></g><g transform="translate(-5,-6) scale(1,1)"><path d="M 323 147 L 432 147" fill="none" stroke="#000000" stroke-dasharray="3" stroke-miterlimit="10"/></g><g transform="translate(-5,-6) scale(1,1)"><path d="M 421.83732514237585 151.209517756016 L 432 147 L 421.83732514237585 142.790482243984" fill="none" stroke="#000000" stroke-miterlimit="10"/></g><g transform="translate(-5,-6) scale(1,1)"><rect fill="#C0C0C0" height="15" opacity="0.2" stroke="none" width="49.83125000000001" x="143" y="23"/></g><g transform="translate(-5,-6) scale(1,1)"><rect fill="#C0C0C0" height="25" opacity="0.2" stroke="none" width="124.578125" x="143" y="37"/></g><g transform="translate(-5,-6) scale(1,1)"><rect fill="#ffffff" height="24" stroke="none" width="124.578125" x="136" y="31"/></g><g transform="translate(-5,-6) scale(1,1)"><path d="M 136 31 L 260.578125 31 L 260.578125 55 L 136 55 L 136 31 Z Z" fill="none" stroke="#000000" stroke-miterlimit="10"/></g><g transform="translate(-5,-6) scale(1,1)"><rect fill="#ffffff" height="15" stroke="none" width="49.83125000000001" x="136" y="16"/></g><g transform="translate(-5,-6) scale(1,1)"><path d="M 136 16 L 185.83125 16 L 185.83125 31 L 136 31 L 136 16 Z Z" fill="none" stroke="#000000" stroke-miterlimit="10"/></g><g transform="translate(-5,-6) scale(1,1)"><rect fill="#ffffff" height="25" stroke="none" width="124.578125" x="136" y="30"/></g><g transform="translate(-5,-6) scale(1,1)"><path d="M 136 30 L 260.578125 30 L 260.578125 55 L 136 55 L 136 30 Z Z" fill="none" stroke="#000000" stroke-miterlimit="10"/></g><g transform="translate(-5,-6) scale(1,1)"><path d="M 177.83125 19 L 177.83125 23" fill="none" stroke="#000000" stroke-miterlimit="10"/></g><g transform="translate(-5,-6) scale(1,1)"><path d="M 174.83125 27 L 174.83125 23 L 180.83125 23" fill="none" stroke="#000000" stroke-miterlimit="10"/></g><g transform="translate(-5,-6) scale(1,1)"><path d="M 180.83125 27 L 180.83125 23 L 174.83125 23" fill="none" stroke="#000000" stroke-miterlimit="10"/></g><g transform="translate(-5,-6) scale(1,1)"><g><path fill="none" stroke="none"/><text fill="#000000" font-family="Arial" font-size="13px" font-style="normal" font-weight="bold" stroke="none" text-decoration="none" x="144.464111328125" y="50.5">CompositePatterm</text></g></g><g transform="translate(-5,-6) scale(1,1)"><path d="M 198 55 L 198 128" fill="none" stroke="#000000" stroke-miterlimit="10"/></g><g transform="translate(-5,-6) scale(1,1)"><path d="M 191 121 C 191 117.1340064 194.1340064 114 198 114 C 201.8659936 114 205 117.1340064 205 121 C 205 124.8659936 201.8659936 128 198 128 C 194.1340064 128 191 124.8659936 191 121 Z" fill="#FFFFFF" stroke="none"/></g><g transform="translate(-5,-6) scale(1,1)"><path d="M 191 121 C 191 117.1340064 194.1340064 114 198 114 C 201.8659936 114 205 117.1340064 205 121 C 205 124.8659936 201.8659936 128 198 128 C 194.1340064 128 191 124.8659936 191 121 Z" fill="none" stroke="#000000" stroke-miterlimit="10"/></g><g transform="translate(-5,-6) scale(1,1)"><path d="M 198 114 L 198 128" fill="none" stroke="#000000" stroke-miterlimit="10"/></g><g transform="translate(-5,-6) scale(1,1)"><path d="M 191 121 L 205 121" fill="none" stroke="#000000" stroke-miterlimit="10"/></g></g></svg>