<?xml version="1.0" encoding="UTF-8" standalone="no"?><svg xmlns="http://www.w3.org/2000/svg" xmlns:xlink="http://www.w3.org/1999/xlink" height="988" version="1.1" width="1247"><defs/><g><g transform="translate(-38,-270) scale(1,1)"><rect fill="#C0C0C0" height="15" opacity="0.2" stroke="none" width="444.8" x="55" y="287"/></g><g transform="translate(-38,-270) scale(1,1)"><rect fill="#C0C0C0" height="954" opacity="0.2" stroke="none" width="1112" x="55" y="301"/></g><g transform="translate(-38,-270) scale(1,1)"><rect fill="#ffffff" height="953" stroke="none" width="1112" x="48" y="295"/></g><g transform="translate(-38,-270) scale(1,1)"><path d="M 48 295 L 1160 295 L 1160 1248 L 48 1248 L 48 295 Z Z" fill="none" stroke="#000000" stroke-miterlimit="10"/></g><g transform="translate(-38,-270) scale(1,1)"><rect fill="#ffffff" height="15" stroke="none" width="444.8" x="48" y="280"/></g><g transform="translate(-38,-270) scale(1,1)"><path d="M 48 280 L 492.8 280 L 492.8 295 L 48 295 L 48 280 Z Z" fill="none" stroke="#000000" stroke-miterlimit="10"/></g><g transform="translate(-38,-270) scale(1,1)"><rect fill="#ffffff" height="954" stroke="none" width="1112" x="48" y="294"/></g><g transform="translate(-38,-270) scale(1,1)"><path d="M 48 294 L 1160 294 L 1160 1248 L 48 1248 L 48 294 Z Z" fill="none" stroke="#000000" stroke-miterlimit="10"/></g><g transform="translate(-38,-270) scale(1,1)"><path d="M 484.8 283 L 484.8 287" fill="none" stroke="#000000" stroke-miterlimit="10"/></g><g transform="translate(-38,-270) scale(1,1)"><path d="M 481.8 291 L 481.8 287 L 487.8 287" fill="none" stroke="#000000" stroke-miterlimit="10"/></g><g transform="translate(-38,-270) scale(1,1)"><path d="M 487.8 291 L 487.8 287 L 481.8 287" fill="none" stroke="#000000" stroke-miterlimit="10"/></g><g transform="translate(-38,-270) scale(1,1)"><g><path fill="none" stroke="none"/><text fill="#000000" font-family="Arial" font-size="13px" font-style="normal" font-weight="bold" stroke="none" text-decoration="none" x="550.175048828125" y="314.5">CompositePatterm</text></g></g><g transform="translate(-38,-270) scale(1,1)"><g><path fill="none" stroke="none"/><text fill="#000000" font-family="Arial" font-size="13px" font-style="normal" font-weight="normal" stroke="none" text-decoration="none" x="505.741455078125" y="329.5">(from BuildingManagmentSystem)</text></g></g><g transform="translate(-38,-270) scale(1,1)"><rect fill="#C0C0C0" height="280" opacity="0.2" stroke="none" width="283.244140625" x="337" y="351"/></g><g transform="translate(-38,-270) scale(1,1)"><rect fill="#ffffff" height="280" stroke="none" width="283.244140625" x="330" y="344"/></g><g transform="translate(-38,-270) scale(1,1)"><path d="M 330 344 L 613.244140625 344 L 613.244140625 624 L 330 624 L 330 344 Z Z" fill="none" stroke="#000000" stroke-miterlimit="10"/></g><g transform="translate(-38,-270) scale(1,1)"><path d="M 330 384 L 613.244140625 384" fill="none" stroke="#000000" stroke-miterlimit="10"/></g><g transform="translate(-38,-270) scale(1,1)"><path d="M 330 437 L 613.244140625 437" fill="none" stroke="#000000" stroke-miterlimit="10"/></g><g transform="translate(-38,-270) scale(1,1)"><g><path fill="none" stroke="none"/><text fill="#000000" font-family="Arial" font-size="13px" font-style="normal" font-weight="bold" stroke="none" text-decoration="none" x="438.017578125" y="363.5">Component</text></g></g><g transform="translate(-38,-270) scale(1,1)"><g><path fill="none" stroke="none"/><text fill="#000000" font-family="Arial" font-size="13px" font-style="normal" font-weight="normal" stroke="none" text-decoration="none" x="398.662109375" y="378.5">(from CompositePatterm)</text></g></g><g transform="translate(-38,-270) scale(1,1)"><g><path fill="none" stroke="none"/><text fill="#000000" font-family="Arial" font-size="13px" font-style="normal" font-weight="normal" stroke="none" text-decoration="none" x="335" y="401.5">-id: int</text></g></g><g transform="translate(-38,-270) scale(1,1)"><g><path fill="none" stroke="none"/><text fill="#000000" font-family="Arial" font-size="13px" font-style="normal" font-weight="normal" stroke="none" text-decoration="none" x="335" y="416.5">-name: string</text></g></g><g transform="translate(-38,-270) scale(1,1)"><g><path fill="none" stroke="none"/><text fill="#000000" font-family="Arial" font-size="13px" font-style="normal" font-weight="normal" stroke="none" text-decoration="none" x="335" y="431.5">-guard: shared_mutex</text></g></g><g transform="translate(-38,-270) scale(1,1)"><g><path fill="none" stroke="none"/><text fill="#000000" font-family="Arial" font-size="13px" font-style="italic" font-weight="normal" stroke="none" text-decoration="none" x="335" y="454.5">+add_child(child: Component): void</text></g></g><g transform="translate(-38,-270) scale(1,1)"><g><path fill="none" stroke="none"/><text fill="#000000" font-family="Arial" font-size="13px" font-style="italic" font-weight="normal" stroke="none" text-decoration="none" x="335" y="469.5">+add_equipment(eq: Equipment): void</text></g></g><g transform="translate(-38,-270) scale(1,1)"><g><path fill="none" stroke="none"/><text fill="#000000" font-family="Arial" font-size="13px" font-style="italic" font-weight="normal" stroke="none" text-decoration="none" x="335" y="484.5">+delete_child(child_id: int): void</text></g></g><g transform="translate(-38,-270) scale(1,1)"><g><path fill="none" stroke="none"/><text fill="#000000" font-family="Arial" font-size="13px" font-style="italic" font-weight="normal" stroke="none" text-decoration="none" x="335" y="499.5">+delete_equipment(eq_id: int): void</text></g></g><g transform="translate(-38,-270) scale(1,1)"><g><path fill="none" stroke="none"/><text fill="#000000" font-family="Arial" font-size="13px" font-style="italic" font-weight="normal" stroke="none" text-decoration="none" x="335" y="514.5">+get_child(child_id: int): Component</text></g></g><g transform="translate(-38,-270) scale(1,1)"><g><path fill="none" stroke="none"/><text fill="#000000" font-family="Arial" font-size="13px" font-style="italic" font-weight="normal" stroke="none" text-decoration="none" x="335" y="529.5">+get_equipment(eq_id: int): Equipment</text></g></g><g transform="translate(-38,-270) scale(1,1)"><g><path fill="none" stroke="none"/><text fill="#000000" font-family="Arial" font-size="13px" font-style="italic" font-weight="normal" stroke="none" text-decoration="none" x="335" y="544.5">+get_structure_json(Parameter2): void</text></g></g><g transform="translate(-38,-270) scale(1,1)"><g><path fill="none" stroke="none"/><text fill="#000000" font-family="Arial" font-size="13px" font-style="italic" font-weight="normal" stroke="none" text-decoration="none" x="335" y="559.5">+get_equipment_json(Parameter2): void</text></g></g><g transform="translate(-38,-270) scale(1,1)"><g><path fill="none" stroke="none"/><text fill="#000000" font-family="Arial" font-size="13px" font-style="italic" font-weight="normal" stroke="none" text-decoration="none" x="335" y="574.5">#to_json(j: json): void</text></g></g><g transform="translate(-38,-270) scale(1,1)"><g><path fill="none" stroke="none"/><text fill="#000000" font-family="Arial" font-size="13px" font-style="italic" font-weight="normal" stroke="none" text-decoration="none" x="335" y="589.5">#from_json(j: json): void</text></g></g><g transform="translate(-38,-270) scale(1,1)"><g><path fill="none" stroke="none"/><text fill="#000000" font-family="Arial" font-size="13px" font-style="normal" font-weight="normal" stroke="none" text-decoration="none" x="335" y="604.5">+get_read_lock(): read_lock</text></g></g><g transform="translate(-38,-270) scale(1,1)"><g><path fill="none" stroke="none"/><text fill="#000000" font-family="Arial" font-size="13px" font-style="normal" font-weight="normal" stroke="none" text-decoration="none" x="335" y="619.5">+get_write_lock(): write_lock</text></g></g><g transform="translate(-38,-270) scale(1,1)"><rect fill="#C0C0C0" height="162" opacity="0.2" stroke="none" width="241.33056640625" x="651" y="735"/></g><g transform="translate(-38,-270) scale(1,1)"><rect fill="#ffffff" height="162" stroke="none" width="241.33056640625" x="644" y="728"/></g><g transform="translate(-38,-270) scale(1,1)"><path d="M 644 728 L 885.33056640625 728 L 885.33056640625 890 L 644 890 L 644 728 Z Z" fill="none" stroke="#000000" stroke-miterlimit="10"/></g><g transform="translate(-38,-270) scale(1,1)"><path d="M 644 768 L 885.33056640625 768" fill="none" stroke="#000000" stroke-miterlimit="10"/></g><g transform="translate(-38,-270) scale(1,1)"><path d="M 644 778 L 885.33056640625 778" fill="none" stroke="#000000" stroke-miterlimit="10"/></g><g transform="translate(-38,-270) scale(1,1)"><g><path fill="none" stroke="none"/><text fill="#000000" font-family="Arial" font-size="13px" font-style="normal" font-weight="bold" stroke="none" text-decoration="none" x="733.5966796875" y="747.5">Composite</text></g></g><g transform="translate(-38,-270) scale(1,1)"><g><path fill="none" stroke="none"/><text fill="#000000" font-family="Arial" font-size="13px" font-style="normal" font-weight="normal" stroke="none" text-decoration="none" x="691.705322265625" y="762.5">(from CompositePatterm)</text></g></g><g transform="translate(-38,-270) scale(1,1)"><g><path fill="none" stroke="none"/><text fill="#000000" font-family="Arial" font-size="13px" font-style="normal" font-weight="normal" stroke="none" text-decoration="none" x="649" y="795.5">+add_child(child: Component): void</text></g></g><g transform="translate(-38,-270) scale(1,1)"><g><path fill="none" stroke="none"/><text fill="#000000" font-family="Arial" font-size="13px" font-style="normal" font-weight="normal" stroke="none" text-decoration="none" x="649" y="810.5">+delete_child(child_id: int): void</text></g></g><g transform="translate(-38,-270) scale(1,1)"><g><path fill="none" stroke="none"/><text fill="#000000" font-family="Arial" font-size="13px" font-style="normal" font-weight="normal" stroke="none" text-decoration="none" x="649" y="825.5">+get_child(child_id: int): Component</text></g></g><g transform="translate(-38,-270) scale(1,1)"><g><path fill="none" stroke="none"/><text fill="#000000" font-family="Arial" font-size="13px" font-style="normal" font-weight="normal" stroke="none" text-decoration="none" x="649" y="840.5">+get_structure_json(Parameter2): void</text></g></g><g transform="translate(-38,-270) scale(1,1)"><g><path fill="none" stroke="none"/><text fill="#000000" font-family="Arial" font-size="13px" font-style="normal" font-weight="normal" stroke="none" text-decoration="none" x="649" y="855.5">+get_equipment_json(Parameter2): void</text></g></g><g transform="translate(-38,-270) scale(1,1)"><g><path fill="none" stroke="none"/><text fill="#000000" font-family="Arial" font-size="13px" font-style="normal" font-weight="normal" stroke="none" text-decoration="none" x="649" y="870.5">-to_json(j: json): void</text></g></g><g transform="translate(-38,-270) scale(1,1)"><g><path fill="none" stroke="none"/><text fill="#000000" font-family="Arial" font-size="13px" font-style="normal" font-weight="normal" stroke="none" text-decoration="none" x="649" y="885.5">-from_json(j: json): void</text></g></g><g transform="translate(-38,-270) scale(1,1)"><rect fill="#C0C0C0" height="155" opacity="0.2" stroke="none" width="276.033203125" x="783" y="383"/></g><g transform="translate(-38,-270) scale(1,1)"><rect fill="#ffffff" height="155" stroke="none" width="276.033203125" x="776" y="376"/></g><g transform="translate(-38,-270) scale(1,1)"><path d="M 776 376 L 1052.033203125 376 L 1052.033203125 531 L 776 531 L 776 376 Z Z" fill="none" stroke="#000000" stroke-miterlimit="10"/></g><g transform="translate(-38,-270) scale(1,1)"><path d="M 776 416 L 1052.033203125 416" fill="none" stroke="#000000" stroke-miterlimit="10"/></g><g transform="translate(-38,-270) scale(1,1)"><path d="M 776 439 L 1052.033203125 439" fill="none" stroke="#000000" stroke-miterlimit="10"/></g><g transform="translate(-38,-270) scale(1,1)"><g><path fill="none" stroke="none"/><text fill="#000000" font-family="Arial" font-size="13px" font-style="normal" font-weight="bold" stroke="none" text-decoration="none" x="870.65576171875" y="395.5">BuildingBuilder</text></g></g><g transform="translate(-38,-270) scale(1,1)"><g><path fill="none" stroke="none"/><text fill="#000000" font-family="Arial" font-size="13px" font-style="normal" font-weight="normal" stroke="none" text-decoration="none" x="841.056640625" y="410.5">(from CompositePatterm)</text></g></g><g transform="translate(-38,-270) scale(1,1)"><g><path fill="none" stroke="none"/><text fill="#000000" font-family="Arial" font-size="13px" font-style="normal" font-weight="normal" stroke="none" text-decoration="none" x="781" y="433.5">+building: Component</text></g></g><g transform="translate(-38,-270) scale(1,1)"><g><path fill="none" stroke="none"/><text fill="#000000" font-family="Arial" font-size="13px" font-style="normal" font-weight="normal" stroke="none" text-decoration="none" x="781" y="456.5">+add_floor(floor: Floor): void</text></g></g><g transform="translate(-38,-270) scale(1,1)"><g><path fill="none" stroke="none"/><text fill="#000000" font-family="Arial" font-size="13px" font-style="normal" font-weight="normal" stroke="none" text-decoration="none" x="781" y="471.5">+add_room(room: Room): void</text></g></g><g transform="translate(-38,-270) scale(1,1)"><g><path fill="none" stroke="none"/><text fill="#000000" font-family="Arial" font-size="13px" font-style="normal" font-weight="normal" stroke="none" text-decoration="none" x="781" y="486.5">+add_equipment(equipment: Equipment): void</text></g></g><g transform="translate(-38,-270) scale(1,1)"><g><path fill="none" stroke="none"/><text fill="#000000" font-family="Arial" font-size="13px" font-style="normal" font-weight="normal" stroke="none" text-decoration="none" x="781" y="501.5">+get_result(name: string): Component</text></g></g><g transform="translate(-38,-270) scale(1,1)"><g><path fill="none" stroke="none"/><text fill="#000000" font-family="Arial" font-size="13px" font-style="normal" font-weight="normal" stroke="none" text-decoration="none" x="781" y="516.5">+reset(): void</text></g></g><g transform="translate(-38,-270) scale(1,1)"><path d="M 704 728 L 704 688 L 464 688 L 464 624" fill="none" stroke="#000000" stroke-miterlimit="10"/></g><g transform="translate(-38,-270) scale(1,1)"><path d="M 472.419035512032 644.3253497152483 L 464 624 L 455.580964487968 644.3253497152483" fill="#FFFFFF" stroke="none"/></g><g transform="translate(-38,-270) scale(1,1)"><path d="M 472.419035512032 644.3253497152483 L 464 624 L 455.580964487968 644.3253497152483 L 472.419035512032 644.3253497152483" fill="none" stroke="#000000" stroke-miterlimit="10"/></g><g transform="translate(-38,-270) scale(1,1)"><path d="M 184 728 L 184 688 L 464 688 L 464 624" fill="none" stroke="#000000" stroke-miterlimit="10"/></g><g transform="translate(-38,-270) scale(1,1)"><path d="M 472.419035512032 644.3253497152483 L 464 624 L 455.580964487968 644.3253497152483" fill="#FFFFFF" stroke="none"/></g><g transform="translate(-38,-270) scale(1,1)"><path d="M 472.419035512032 644.3253497152483 L 464 624 L 455.580964487968 644.3253497152483 L 472.419035512032 644.3253497152483" fill="none" stroke="#000000" stroke-miterlimit="10"/></g><g transform="translate(-38,-270) scale(1,1)"><rect fill="#C0C0C0" height="160" opacity="0.2" stroke="none" width="240" x="367" y="735"/></g><g transform="translate(-38,-270) scale(1,1)"><rect fill="#ffffff" height="160" stroke="none" width="240" x="360" y="728"/></g><g transform="translate(-38,-270) scale(1,1)"><path d="M 360 728 L 600 728 L 600 888 L 360 888 L 360 728 Z Z" fill="none" stroke="#000000" stroke-miterlimit="10"/></g><g transform="translate(-38,-270) scale(1,1)"><path d="M 360 768 L 600 768" fill="none" stroke="#000000" stroke-miterlimit="10"/></g><g transform="translate(-38,-270) scale(1,1)"><path d="M 360 821 L 600 821" fill="none" stroke="#000000" stroke-miterlimit="10"/></g><g transform="translate(-38,-270) scale(1,1)"><g><path fill="none" stroke="none"/><text fill="#000000" font-family="Arial" font-size="13px" font-style="normal" font-weight="bold" stroke="none" text-decoration="none" x="448.925048828125" y="747.5">Equipment</text></g></g><g transform="translate(-38,-270) scale(1,1)"><g><path fill="none" stroke="none"/><text fill="#000000" font-family="Arial" font-size="13px" font-style="normal" font-weight="normal" stroke="none" text-decoration="none" x="407.0400390625" y="762.5">(from CompositePatterm)</text></g></g><g transform="translate(-38,-270) scale(1,1)"><g><path fill="none" stroke="none"/><text fill="#000000" font-family="Arial" font-size="13px" font-style="normal" font-weight="normal" stroke="none" text-decoration="none" x="365" y="785.5">-id: int</text></g></g><g transform="translate(-38,-270) scale(1,1)"><g><path fill="none" stroke="none"/><text fill="#000000" font-family="Arial" font-size="13px" font-style="normal" font-weight="normal" stroke="none" text-decoration="none" x="365" y="800.5">+name: string</text></g></g><g transform="translate(-38,-270) scale(1,1)"><g><path fill="none" stroke="none"/><text fill="#000000" font-family="Arial" font-size="13px" font-style="normal" font-weight="normal" stroke="none" text-decoration="none" x="365" y="815.5">+type: Type</text></g></g><g transform="translate(-38,-270) scale(1,1)"><g><path fill="none" stroke="none"/><text fill="#000000" font-family="Arial" font-size="13px" font-style="normal" font-weight="normal" stroke="none" text-decoration="none" x="365" y="838.5">-to_json(j: json): void</text></g></g><g transform="translate(-38,-270) scale(1,1)"><g><path fill="none" stroke="none"/><text fill="#000000" font-family="Arial" font-size="13px" font-style="normal" font-weight="normal" stroke="none" text-decoration="none" x="365" y="853.5">-from_json(j: json): void</text></g></g><g transform="translate(-38,-270) scale(1,1)"><g><path fill="none" stroke="none"/><text fill="#000000" font-family="Arial" font-size="13px" font-style="normal" font-weight="normal" stroke="none" text-decoration="none" x="365" y="868.5">-generate_id(): int</text><path d="M 365 868.5 L 467.60986328125 868.5" fill="none" stroke="#000000" stroke-miterlimit="10"/></g></g><g transform="translate(-38,-270) scale(1,1)"><path d="M 360 833 L 305 833" fill="none" stroke="#000000" stroke-miterlimit="10"/></g><g transform="translate(-38,-270) scale(1,1)"><path d="M 315.16267485762415 828.790482243984 L 305 833 L 315.16267485762415 837.209517756016 L 327 833" fill="#FFFFFF" stroke="none"/></g><g transform="translate(-38,-270) scale(1,1)"><path d="M 315.16267485762415 828.790482243984 L 305 833 L 315.16267485762415 837.209517756016 L 327 833 L 315.16267485762415 828.790482243984" fill="none" stroke="#000000" stroke-miterlimit="10"/></g><g transform="translate(-38,-270) scale(1,1)"><path d="M 856 531 L 856 728" fill="none" stroke="#000000" stroke-dasharray="3" stroke-miterlimit="10"/></g><g transform="translate(-38,-270) scale(1,1)"><path d="M 851.790482243984 717.8373251423759 L 856 728 L 860.209517756016 717.8373251423759" fill="none" stroke="#000000" stroke-miterlimit="10"/></g><g transform="translate(-38,-270) scale(1,1)"><path d="M 1000 531 L 1000 1192 L 141 1192 L 141 890" fill="none" stroke="#000000" stroke-dasharray="3" stroke-miterlimit="10"/></g><g transform="translate(-38,-270) scale(1,1)"><path d="M 145.209517756016 900.1626748576241 L 141 890 L 136.790482243984 900.1626748576241" fill="none" stroke="#000000" stroke-miterlimit="10"/></g><g transform="translate(-38,-270) scale(1,1)"><path d="M 776 416 L 613 416" fill="none" stroke="#000000" stroke-dasharray="3" stroke-miterlimit="10"/></g><g transform="translate(-38,-270) scale(1,1)"><path d="M 623.1626748576241 411.790482243984 L 613 416 L 623.1626748576241 420.209517756016" fill="none" stroke="#000000" stroke-miterlimit="10"/></g><g transform="translate(-38,-270) scale(1,1)"><rect fill="#C0C0C0" height="162" opacity="0.2" stroke="none" width="241.33056640625" x="71" y="735"/></g><g transform="translate(-38,-270) scale(1,1)"><rect fill="#ffffff" height="162" stroke="none" width="241.33056640625" x="64" y="728"/></g><g transform="translate(-38,-270) scale(1,1)"><path d="M 64 728 L 305.33056640625 728 L 305.33056640625 890 L 64 890 L 64 728 Z Z" fill="none" stroke="#000000" stroke-miterlimit="10"/></g><g transform="translate(-38,-270) scale(1,1)"><path d="M 64 768 L 305.33056640625 768" fill="none" stroke="#000000" stroke-miterlimit="10"/></g><g transform="translate(-38,-270) scale(1,1)"><path d="M 64 778 L 305.33056640625 778" fill="none" stroke="#000000" stroke-miterlimit="10"/></g><g transform="translate(-38,-270) scale(1,1)"><g><path fill="none" stroke="none"/><text fill="#000000" font-family="Arial" font-size="13px" font-style="normal" font-weight="bold" stroke="none" text-decoration="none" x="167.32666015625" y="747.5">Room</text></g></g><g transform="translate(-38,-270) scale(1,1)"><g><path fill="none" stroke="none"/><text fill="#000000" font-family="Arial" font-size="13px" font-style="normal" font-weight="normal" stroke="none" text-decoration="none" x="111.705322265625" y="762.5">(from CompositePatterm)</text></g></g><g transform="translate(-38,-270) scale(1,1)"><g><path fill="none" stroke="none"/><text fill="#000000" font-family="Arial" font-size="13px" font-style="normal" font-weight="normal" stroke="none" text-decoration="none" x="69" y="795.5">+add_equipment(eq: Equipment): void</text></g></g><g transform="translate(-38,-270) scale(1,1)"><g><path fill="none" stroke="none"/><text fill="#000000" font-family="Arial" font-size="13px" font-style="normal" font-weight="normal" stroke="none" text-decoration="none" x="69" y="810.5">+delete_equipment(eq_id: int): void</text></g></g><g transform="translate(-38,-270) scale(1,1)"><g><path fill="none" stroke="none"/><text fill="#000000" font-family="Arial" font-size="13px" font-style="normal" font-weight="normal" stroke="none" text-decoration="none" x="69" y="825.5">+get_equipment(eq_id: int): Equipment</text></g></g><g transform="translate(-38,-270) scale(1,1)"><g><path fill="none" stroke="none"/><text fill="#000000" font-family="Arial" font-size="13px" font-style="normal" font-weight="normal" stroke="none" text-decoration="none" x="69" y="840.5">+get_structure_json(Parameter2): void</text></g></g><g transform="translate(-38,-270) scale(1,1)"><g><path fill="none" stroke="none"/><text fill="#000000" font-family="Arial" font-size="13px" font-style="normal" font-weight="normal" stroke="none" text-decoration="none" x="69" y="855.5">+get_equipment_json(Parameter2): void</text></g></g><g transform="translate(-38,-270) scale(1,1)"><g><path fill="none" stroke="none"/><text fill="#000000" font-family="Arial" font-size="13px" font-style="normal" font-weight="normal" stroke="none" text-decoration="none" x="69" y="870.5">-to_json(j: json): void</text></g></g><g transform="translate(-38,-270) scale(1,1)"><g><path fill="none" stroke="none"/><text fill="#000000" font-family="Arial" font-size="13px" font-style="normal" font-weight="normal" stroke="none" text-decoration="none" x="69" y="885.5">-from_json(j: json): void</text></g></g><g transform="translate(-38,-270) scale(1,1)"><path d="M 613 584 L 760 584 L 760 728" fill="none" stroke="#000000" stroke-miterlimit="10"/></g><g transform="translate(-38,-270) scale(1,1)"><path d="M 755.790482243984 717.8373251423759 L 760 728 L 764.209517756016 717.8373251423759 L 760 706" fill="#000000" stroke="none"/></g><g transform="translate(-38,-270) scale(1,1)"><path d="M 755.790482243984 717.8373251423759 L 760 728 L 764.209517756016 717.8373251423759 L 760 706 L 755.790482243984 717.8373251423759" fill="none" stroke="#000000" stroke-miterlimit="10"/></g><g transform="translate(-38,-270) scale(1,1)"><g><path fill="none" stroke="none"/><text fill="#000000" font-family="Arial" font-size="13px" font-style="normal" font-weight="normal" stroke="none" text-decoration="none" x="621" y="586">child 0...*</text></g></g><g transform="translate(-38,-270) scale(1,1)"><g><path fill="none" stroke="none"/><text fill="#000000" font-family="Arial" font-size="13px" font-style="normal" font-weight="normal" stroke="none" text-decoration="none" x="773" y="730">father</text></g></g><g transform="translate(-38,-270) scale(1,1)"><g><path fill="none" stroke="none"/><text fill="#000000" font-family="Arial" font-size="13px" font-style="normal" font-weight="normal" stroke="none" text-decoration="none" x="861" y="642">constructus</text><text fill="#000000" font-family="Arial" font-size="13px" font-style="normal" font-weight="normal" stroke="none" text-decoration="none" x="861" y="655">building</text><text fill="#000000" font-family="Arial" font-size="13px" font-style="normal" font-weight="normal" stroke="none" text-decoration="none" x="861" y="668">from</text></g></g><g transform="translate(-38,-270) scale(1,1)"><g><path fill="none" stroke="none"/><text fill="#000000" font-family="Arial" font-size="13px" font-style="normal" font-weight="normal" stroke="none" text-decoration="none" x="1005" y="642">constructs</text><text fill="#000000" font-family="Arial" font-size="13px" font-style="normal" font-weight="normal" stroke="none" text-decoration="none" x="1005" y="655">floors from</text></g></g><g transform="translate(-38,-270) scale(1,1)"><g><path fill="none" stroke="none"/><text fill="#000000" font-family="Arial" font-size="13px" font-style="normal" font-weight="normal" stroke="none" text-decoration="none" x="637" y="418">constructs</text></g></g><g transform="translate(-38,-270) scale(1,1)"><path d="M 104 512 L 237 512 L 247 522 L 247 626 L 104 626 L 104 512" fill="#ffffff" stroke="none"/></g><g transform="translate(-38,-270) scale(1,1)"><path d="M 104 512 L 237 512 L 247 522 L 247 626 L 104 626 L 104 512 L 104 512" fill="none" stroke="#000000" stroke-miterlimit="10"/></g><g transform="translate(-38,-270) scale(1,1)"><path d="M 237 512 L 237 522 L 247 522 L 237 512" fill="none" stroke="#000000" stroke-miterlimit="10"/></g><g transform="translate(-38,-270) scale(1,1)"><g><path fill="none" stroke="none"/><text fill="#000000" font-family="Arial" font-size="13px" font-style="normal" font-weight="normal" stroke="none" text-decoration="none" x="109" y="530">Not listed abstract</text><text fill="#000000" font-family="Arial" font-size="13px" font-style="normal" font-weight="normal" stroke="none" text-decoration="none" x="109" y="543">methods from</text><text fill="#000000" font-family="Arial" font-size="13px" font-style="normal" font-weight="normal" stroke="none" text-decoration="none" x="109" y="556">Component are not</text><text fill="#000000" font-family="Arial" font-size="13px" font-style="normal" font-weight="normal" stroke="none" text-decoration="none" x="109" y="569">allowed by those</text><text fill="#000000" font-family="Arial" font-size="13px" font-style="normal" font-weight="normal" stroke="none" text-decoration="none" x="109" y="582">classes, therefore they</text><text fill="#000000" font-family="Arial" font-size="13px" font-style="normal" font-weight="normal" stroke="none" text-decoration="none" x="109" y="595">throw an exception</text><text fill="#000000" font-family="Arial" font-size="13px" font-style="normal" font-weight="normal" stroke="none" text-decoration="none" x="109" y="608">when called.</text></g></g><g transform="translate(-38,-270) scale(1,1)"><path d="M 136 728 L 136 627" fill="none" stroke="#000000" stroke-dasharray="3" stroke-miterlimit="10"/></g><g transform="translate(-38,-270) scale(1,1)"><path d="M 643 760 L 249 599" fill="none" stroke="#000000" stroke-dasharray="3" stroke-miterlimit="10"/></g><g transform="translate(-38,-270) scale(1,1)"><path d="M 808 1080 L 949 1080 L 959 1090 L 959 1145 L 808 1145 L 808 1080" fill="#ffffff" stroke="none"/></g><g transform="translate(-38,-270) scale(1,1)"><path d="M 808 1080 L 949 1080 L 959 1090 L 959 1145 L 808 1145 L 808 1080 L 808 1080" fill="none" stroke="#000000" stroke-miterlimit="10"/></g><g transform="translate(-38,-270) scale(1,1)"><path d="M 949 1080 L 949 1090 L 959 1090 L 949 1080" fill="none" stroke="#000000" stroke-miterlimit="10"/></g><g transform="translate(-38,-270) scale(1,1)"><g><path fill="none" stroke="none"/><text fill="#000000" font-family="Arial" font-size="13px" font-style="normal" font-weight="normal" stroke="none" text-decoration="none" x="813" y="1098">Aggreagates only</text><text fill="#000000" font-family="Arial" font-size="13px" font-style="normal" font-weight="normal" stroke="none" text-decoration="none" x="813" y="1111">Buildings</text></g></g><g transform="translate(-38,-270) scale(1,1)"><rect fill="#C0C0C0" height="44" opacity="0.2" stroke="none" width="168" x="807" y="1007"/></g><g transform="translate(-38,-270) scale(1,1)"><rect fill="#ffffff" height="44" stroke="none" width="168" x="800" y="1000"/></g><g transform="translate(-38,-270) scale(1,1)"><path d="M 800 1000 L 968 1000 L 968 1044 L 800 1044 L 800 1000 Z Z" fill="none" stroke="#000000" stroke-miterlimit="10"/></g><g transform="translate(-38,-270) scale(1,1)"><path d="M 800 1025 L 968 1025" fill="none" stroke="#000000" stroke-miterlimit="10"/></g><g transform="translate(-38,-270) scale(1,1)"><path d="M 800 1035 L 968 1035" fill="none" stroke="#000000" stroke-miterlimit="10"/></g><g transform="translate(-38,-270) scale(1,1)"><g><path fill="none" stroke="none"/><text fill="#000000" font-family="Arial" font-size="13px" font-style="normal" font-weight="bold" stroke="none" text-decoration="none" x="862.3291015625" y="1019.5">System</text></g></g><g transform="translate(-38,-270) scale(1,1)"><rect fill="#C0C0C0" height="44" opacity="0.2" stroke="none" width="168" x="595" y="1007"/></g><g transform="translate(-38,-270) scale(1,1)"><rect fill="#ffffff" height="44" stroke="none" width="168" x="588" y="1000"/></g><g transform="translate(-38,-270) scale(1,1)"><path d="M 588 1000 L 756 1000 L 756 1044 L 588 1044 L 588 1000 Z Z" fill="none" stroke="#000000" stroke-miterlimit="10"/></g><g transform="translate(-38,-270) scale(1,1)"><path d="M 588 1025 L 756 1025" fill="none" stroke="#000000" stroke-miterlimit="10"/></g><g transform="translate(-38,-270) scale(1,1)"><path d="M 588 1035 L 756 1035" fill="none" stroke="#000000" stroke-miterlimit="10"/></g><g transform="translate(-38,-270) scale(1,1)"><g><path fill="none" stroke="none"/><text fill="#000000" font-family="Arial" font-size="13px" font-style="normal" font-weight="bold" stroke="none" text-decoration="none" x="648.872314453125" y="1019.5">Building</text></g></g><g transform="translate(-38,-270) scale(1,1)"><path d="M 592 1080 L 733 1080 L 743 1090 L 743 1145 L 592 1145 L 592 1080" fill="#ffffff" stroke="none"/></g><g transform="translate(-38,-270) scale(1,1)"><path d="M 592 1080 L 733 1080 L 743 1090 L 743 1145 L 592 1145 L 592 1080 L 592 1080" fill="none" stroke="#000000" stroke-miterlimit="10"/></g><g transform="translate(-38,-270) scale(1,1)"><path d="M 733 1080 L 733 1090 L 743 1090 L 733 1080" fill="none" stroke="#000000" stroke-miterlimit="10"/></g><g transform="translate(-38,-270) scale(1,1)"><g><path fill="none" stroke="none"/><text fill="#000000" font-family="Arial" font-size="13px" font-style="normal" font-weight="normal" stroke="none" text-decoration="none" x="597" y="1098">Aggreagates only </text><text fill="#000000" font-family="Arial" font-size="13px" font-style="normal" font-weight="normal" stroke="none" text-decoration="none" x="597" y="1111">Floors</text></g></g><g transform="translate(-38,-270) scale(1,1)"><path d="M 376 1080 L 517 1080 L 527 1090 L 527 1145 L 376 1145 L 376 1080" fill="#ffffff" stroke="none"/></g><g transform="translate(-38,-270) scale(1,1)"><path d="M 376 1080 L 517 1080 L 527 1090 L 527 1145 L 376 1145 L 376 1080 L 376 1080" fill="none" stroke="#000000" stroke-miterlimit="10"/></g><g transform="translate(-38,-270) scale(1,1)"><path d="M 517 1080 L 517 1090 L 527 1090 L 517 1080" fill="none" stroke="#000000" stroke-miterlimit="10"/></g><g transform="translate(-38,-270) scale(1,1)"><g><path fill="none" stroke="none"/><text fill="#000000" font-family="Arial" font-size="13px" font-style="normal" font-weight="normal" stroke="none" text-decoration="none" x="381" y="1098">Aggreagates only</text><text fill="#000000" font-family="Arial" font-size="13px" font-style="normal" font-weight="normal" stroke="none" text-decoration="none" x="381" y="1111">Rooms</text></g></g><g transform="translate(-38,-270) scale(1,1)"><rect fill="#C0C0C0" height="44" opacity="0.2" stroke="none" width="168" x="383" y="1007"/></g><g transform="translate(-38,-270) scale(1,1)"><rect fill="#ffffff" height="44" stroke="none" width="168" x="376" y="1000"/></g><g transform="translate(-38,-270) scale(1,1)"><path d="M 376 1000 L 544 1000 L 544 1044 L 376 1044 L 376 1000 Z Z" fill="none" stroke="#000000" stroke-miterlimit="10"/></g><g transform="translate(-38,-270) scale(1,1)"><path d="M 376 1025 L 544 1025" fill="none" stroke="#000000" stroke-miterlimit="10"/></g><g transform="translate(-38,-270) scale(1,1)"><path d="M 376 1035 L 544 1035" fill="none" stroke="#000000" stroke-miterlimit="10"/></g><g transform="translate(-38,-270) scale(1,1)"><g><path fill="none" stroke="none"/><text fill="#000000" font-family="Arial" font-size="13px" font-style="normal" font-weight="bold" stroke="none" text-decoration="none" x="445.19091796875" y="1019.5">Floor</text></g></g><g transform="translate(-38,-270) scale(1,1)"><path d="M 459 1080 L 459 1044" fill="none" stroke="#000000" stroke-dasharray="3" stroke-miterlimit="10"/></g><g transform="translate(-38,-270) scale(1,1)"><path d="M 672 1080 L 672 1044" fill="none" stroke="#000000" stroke-dasharray="3" stroke-miterlimit="10"/></g><g transform="translate(-38,-270) scale(1,1)"><path d="M 885 1080 L 885 1044" fill="none" stroke="#000000" stroke-dasharray="3" stroke-miterlimit="10"/></g><g transform="translate(-38,-270) scale(1,1)"><path d="M 464 1000 L 464 960 L 768 960 L 768 890" fill="none" stroke="#000000" stroke-miterlimit="10"/></g><g transform="translate(-38,-270) scale(1,1)"><path d="M 776.419035512032 910.3253497152483 L 768 890 L 759.580964487968 910.3253497152483" fill="#FFFFFF" stroke="none"/></g><g transform="translate(-38,-270) scale(1,1)"><path d="M 776.419035512032 910.3253497152483 L 768 890 L 759.580964487968 910.3253497152483 L 776.419035512032 910.3253497152483" fill="none" stroke="#000000" stroke-miterlimit="10"/></g><g transform="translate(-38,-270) scale(1,1)"><path d="M 672 1000 L 672 960 L 768 960 L 768 890" fill="none" stroke="#000000" stroke-miterlimit="10"/></g><g transform="translate(-38,-270) scale(1,1)"><path d="M 776.419035512032 910.3253497152483 L 768 890 L 759.580964487968 910.3253497152483" fill="#FFFFFF" stroke="none"/></g><g transform="translate(-38,-270) scale(1,1)"><path d="M 776.419035512032 910.3253497152483 L 768 890 L 759.580964487968 910.3253497152483 L 776.419035512032 910.3253497152483" fill="none" stroke="#000000" stroke-miterlimit="10"/></g><g transform="translate(-38,-270) scale(1,1)"><path d="M 880 1000 L 880 960 L 768 960 L 768 890" fill="none" stroke="#000000" stroke-miterlimit="10"/></g><g transform="translate(-38,-270) scale(1,1)"><path d="M 776.419035512032 910.3253497152483 L 768 890 L 759.580964487968 910.3253497152483" fill="#FFFFFF" stroke="none"/></g><g transform="translate(-38,-270) scale(1,1)"><path d="M 776.419035512032 910.3253497152483 L 768 890 L 759.580964487968 910.3253497152483 L 776.419035512032 910.3253497152483" fill="none" stroke="#000000" stroke-miterlimit="10"/></g></g></svg>