<?xml version="1.0" encoding="UTF-8" standalone="no"?><svg xmlns="http://www.w3.org/2000/svg" xmlns:xlink="http://www.w3.org/1999/xlink" height="815" version="1.1" width="1412"><defs/><g><g transform="translate(-198,-278) scale(1,1)"><rect fill="#C0C0C0" height="15" opacity="0.2" stroke="none" width="428.79999999999995" x="215" y="295"/></g><g transform="translate(-198,-278) scale(1,1)"><rect fill="#C0C0C0" height="618" opacity="0.2" stroke="none" width="1072" x="215" y="309"/></g><g transform="translate(-198,-278) scale(1,1)"><rect fill="#ffffff" height="617" stroke="none" width="1072" x="208" y="303"/></g><g transform="translate(-198,-278) scale(1,1)"><path d="M 208 303 L 1280 303 L 1280 920 L 208 920 L 208 303 Z Z" fill="none" stroke="#000000" stroke-miterlimit="10"/></g><g transform="translate(-198,-278) scale(1,1)"><rect fill="#ffffff" height="15" stroke="none" width="428.79999999999995" x="208" y="288"/></g><g transform="translate(-198,-278) scale(1,1)"><path d="M 208 288 L 636.8 288 L 636.8 303 L 208 303 L 208 288 Z Z" fill="none" stroke="#000000" stroke-miterlimit="10"/></g><g transform="translate(-198,-278) scale(1,1)"><rect fill="#ffffff" height="618" stroke="none" width="1072" x="208" y="302"/></g><g transform="translate(-198,-278) scale(1,1)"><path d="M 208 302 L 1280 302 L 1280 920 L 208 920 L 208 302 Z Z" fill="none" stroke="#000000" stroke-miterlimit="10"/></g><g transform="translate(-198,-278) scale(1,1)"><path d="M 628.8 291 L 628.8 295" fill="none" stroke="#000000" stroke-miterlimit="10"/></g><g transform="translate(-198,-278) scale(1,1)"><path d="M 625.8 299 L 625.8 295 L 631.8 295" fill="none" stroke="#000000" stroke-miterlimit="10"/></g><g transform="translate(-198,-278) scale(1,1)"><path d="M 631.8 299 L 631.8 295 L 625.8 295" fill="none" stroke="#000000" stroke-miterlimit="10"/></g><g transform="translate(-198,-278) scale(1,1)"><g><path fill="none" stroke="none"/><text fill="#000000" font-family="Arial" font-size="13px" font-style="normal" font-weight="bold" stroke="none" text-decoration="none" x="664.87646484375" y="322.5">BuildingManagmentSystem</text></g></g><g transform="translate(-198,-278) scale(1,1)"><rect fill="#C0C0C0" height="72" opacity="0.2" stroke="none" width="205.51708984375" x="239" y="839"/></g><g transform="translate(-198,-278) scale(1,1)"><rect fill="#ffffff" height="72" stroke="none" width="205.51708984375" x="232" y="832"/></g><g transform="translate(-198,-278) scale(1,1)"><path d="M 232 832 L 437.51708984375 832 L 437.51708984375 904 L 232 904 L 232 832 Z Z" fill="none" stroke="#000000" stroke-miterlimit="10"/></g><g transform="translate(-198,-278) scale(1,1)"><path d="M 232 872 L 437.51708984375 872" fill="none" stroke="#000000" stroke-miterlimit="10"/></g><g transform="translate(-198,-278) scale(1,1)"><path d="M 232 882 L 437.51708984375 882" fill="none" stroke="#000000" stroke-miterlimit="10"/></g><g transform="translate(-198,-278) scale(1,1)"><g><path fill="none" stroke="none"/><text fill="#000000" font-family="Arial" font-size="13px" font-style="normal" font-weight="bold" stroke="none" text-decoration="none" x="278.39453125" y="851.5">ResourceNotFound</text></g></g><g transform="translate(-198,-278) scale(1,1)"><g><path fill="none" stroke="none"/><text fill="#000000" font-family="Arial" font-size="13px" font-style="normal" font-weight="normal" stroke="none" text-decoration="none" x="236.5" y="866.5">(from BuildingManagmentSystem)</text></g></g><g transform="translate(-198,-278) scale(1,1)"><g><path fill="none" stroke="none"/><text fill="#000000" font-family="Arial" font-size="13px" font-style="normal" font-weight="normal" stroke="none" text-decoration="none" x="237" y="899.5">+what(): char*</text></g></g><g transform="translate(-198,-278) scale(1,1)"><rect fill="#C0C0C0" height="72" opacity="0.2" stroke="none" width="205.51708984375" x="510" y="839"/></g><g transform="translate(-198,-278) scale(1,1)"><rect fill="#ffffff" height="72" stroke="none" width="205.51708984375" x="503" y="832"/></g><g transform="translate(-198,-278) scale(1,1)"><path d="M 503 832 L 708.51708984375 832 L 708.51708984375 904 L 503 904 L 503 832 Z Z" fill="none" stroke="#000000" stroke-miterlimit="10"/></g><g transform="translate(-198,-278) scale(1,1)"><path d="M 503 872 L 708.51708984375 872" fill="none" stroke="#000000" stroke-miterlimit="10"/></g><g transform="translate(-198,-278) scale(1,1)"><path d="M 503 882 L 708.51708984375 882" fill="none" stroke="#000000" stroke-miterlimit="10"/></g><g transform="translate(-198,-278) scale(1,1)"><g><path fill="none" stroke="none"/><text fill="#000000" font-family="Arial" font-size="13px" font-style="normal" font-weight="bold" stroke="none" text-decoration="none" x="536.38818359375" y="851.5">MethodNotImplemented</text></g></g><g transform="translate(-198,-278) scale(1,1)"><g><path fill="none" stroke="none"/><text fill="#000000" font-family="Arial" font-size="13px" font-style="normal" font-weight="normal" stroke="none" text-decoration="none" x="507.5" y="866.5">(from BuildingManagmentSystem)</text></g></g><g transform="translate(-198,-278) scale(1,1)"><g><path fill="none" stroke="none"/><text fill="#000000" font-family="Arial" font-size="13px" font-style="normal" font-weight="normal" stroke="none" text-decoration="none" x="508" y="899.5">+what(): char*</text></g></g><g transform="translate(-198,-278) scale(1,1)"><rect fill="#C0C0C0" height="72" opacity="0.2" stroke="none" width="205.51708984375" x="781" y="839"/></g><g transform="translate(-198,-278) scale(1,1)"><rect fill="#ffffff" height="72" stroke="none" width="205.51708984375" x="774" y="832"/></g><g transform="translate(-198,-278) scale(1,1)"><path d="M 774 832 L 979.51708984375 832 L 979.51708984375 904 L 774 904 L 774 832 Z Z" fill="none" stroke="#000000" stroke-miterlimit="10"/></g><g transform="translate(-198,-278) scale(1,1)"><path d="M 774 872 L 979.51708984375 872" fill="none" stroke="#000000" stroke-miterlimit="10"/></g><g transform="translate(-198,-278) scale(1,1)"><path d="M 774 882 L 979.51708984375 882" fill="none" stroke="#000000" stroke-miterlimit="10"/></g><g transform="translate(-198,-278) scale(1,1)"><g><path fill="none" stroke="none"/><text fill="#000000" font-family="Arial" font-size="13px" font-style="normal" font-weight="bold" stroke="none" text-decoration="none" x="809.5654296875" y="851.5">ResourceAlreadyExists</text></g></g><g transform="translate(-198,-278) scale(1,1)"><g><path fill="none" stroke="none"/><text fill="#000000" font-family="Arial" font-size="13px" font-style="normal" font-weight="normal" stroke="none" text-decoration="none" x="778.5" y="866.5">(from BuildingManagmentSystem)</text></g></g><g transform="translate(-198,-278) scale(1,1)"><g><path fill="none" stroke="none"/><text fill="#000000" font-family="Arial" font-size="13px" font-style="normal" font-weight="normal" stroke="none" text-decoration="none" x="779" y="899.5">+what(): char*</text></g></g><g transform="translate(-198,-278) scale(1,1)"><rect fill="#C0C0C0" height="72" opacity="0.2" stroke="none" width="205.51708984375" x="1052" y="839"/></g><g transform="translate(-198,-278) scale(1,1)"><rect fill="#ffffff" height="72" stroke="none" width="205.51708984375" x="1045" y="832"/></g><g transform="translate(-198,-278) scale(1,1)"><path d="M 1045 832 L 1250.51708984375 832 L 1250.51708984375 904 L 1045 904 L 1045 832 Z Z" fill="none" stroke="#000000" stroke-miterlimit="10"/></g><g transform="translate(-198,-278) scale(1,1)"><path d="M 1045 872 L 1250.51708984375 872" fill="none" stroke="#000000" stroke-miterlimit="10"/></g><g transform="translate(-198,-278) scale(1,1)"><path d="M 1045 882 L 1250.51708984375 882" fill="none" stroke="#000000" stroke-miterlimit="10"/></g><g transform="translate(-198,-278) scale(1,1)"><g><path fill="none" stroke="none"/><text fill="#000000" font-family="Arial" font-size="13px" font-style="normal" font-weight="bold" stroke="none" text-decoration="none" x="1089.588623046875" y="851.5">SourceIsDestination</text></g></g><g transform="translate(-198,-278) scale(1,1)"><g><path fill="none" stroke="none"/><text fill="#000000" font-family="Arial" font-size="13px" font-style="normal" font-weight="normal" stroke="none" text-decoration="none" x="1049.5" y="866.5">(from BuildingManagmentSystem)</text></g></g><g transform="translate(-198,-278) scale(1,1)"><g><path fill="none" stroke="none"/><text fill="#000000" font-family="Arial" font-size="13px" font-style="normal" font-weight="normal" stroke="none" text-decoration="none" x="1050" y="899.5">+what(): char*</text></g></g><g transform="translate(-198,-278) scale(1,1)"><rect fill="#C0C0C0" height="72" opacity="0.2" stroke="none" width="205.51708984375" x="375" y="743"/></g><g transform="translate(-198,-278) scale(1,1)"><rect fill="#ffffff" height="72" stroke="none" width="205.51708984375" x="368" y="736"/></g><g transform="translate(-198,-278) scale(1,1)"><path d="M 368 736 L 573.51708984375 736 L 573.51708984375 808 L 368 808 L 368 736 Z Z" fill="none" stroke="#000000" stroke-miterlimit="10"/></g><g transform="translate(-198,-278) scale(1,1)"><path d="M 368 776 L 573.51708984375 776" fill="none" stroke="#000000" stroke-miterlimit="10"/></g><g transform="translate(-198,-278) scale(1,1)"><path d="M 368 786 L 573.51708984375 786" fill="none" stroke="#000000" stroke-miterlimit="10"/></g><g transform="translate(-198,-278) scale(1,1)"><g><path fill="none" stroke="none"/><text fill="#000000" font-family="Arial" font-size="13px" font-style="normal" font-weight="bold" stroke="none" text-decoration="none" x="414.765869140625" y="755.5">IllformedComposite</text></g></g><g transform="translate(-198,-278) scale(1,1)"><g><path fill="none" stroke="none"/><text fill="#000000" font-family="Arial" font-size="13px" font-style="normal" font-weight="normal" stroke="none" text-decoration="none" x="372.5" y="770.5">(from BuildingManagmentSystem)</text></g></g><g transform="translate(-198,-278) scale(1,1)"><g><path fill="none" stroke="none"/><text fill="#000000" font-family="Arial" font-size="13px" font-style="normal" font-weight="normal" stroke="none" text-decoration="none" x="373" y="803.5">+what(): char*</text></g></g><g transform="translate(-198,-278) scale(1,1)"><rect fill="#C0C0C0" height="72" opacity="0.2" stroke="none" width="205.51708984375" x="911" y="751"/></g><g transform="translate(-198,-278) scale(1,1)"><rect fill="#ffffff" height="72" stroke="none" width="205.51708984375" x="904" y="744"/></g><g transform="translate(-198,-278) scale(1,1)"><path d="M 904 744 L 1109.51708984375 744 L 1109.51708984375 816 L 904 816 L 904 744 Z Z" fill="none" stroke="#000000" stroke-miterlimit="10"/></g><g transform="translate(-198,-278) scale(1,1)"><path d="M 904 784 L 1109.51708984375 784" fill="none" stroke="#000000" stroke-miterlimit="10"/></g><g transform="translate(-198,-278) scale(1,1)"><path d="M 904 794 L 1109.51708984375 794" fill="none" stroke="#000000" stroke-miterlimit="10"/></g><g transform="translate(-198,-278) scale(1,1)"><g><path fill="none" stroke="none"/><text fill="#000000" font-family="Arial" font-size="13px" font-style="normal" font-weight="bold" stroke="none" text-decoration="none" x="932.3291015625" y="763.5">UnfittingComponentGiven</text></g></g><g transform="translate(-198,-278) scale(1,1)"><g><path fill="none" stroke="none"/><text fill="#000000" font-family="Arial" font-size="13px" font-style="normal" font-weight="normal" stroke="none" text-decoration="none" x="908.5" y="778.5">(from BuildingManagmentSystem)</text></g></g><g transform="translate(-198,-278) scale(1,1)"><g><path fill="none" stroke="none"/><text fill="#000000" font-family="Arial" font-size="13px" font-style="normal" font-weight="normal" stroke="none" text-decoration="none" x="909" y="811.5">+what(): char*</text></g></g><g transform="translate(-198,-278) scale(1,1)"><rect fill="#C0C0C0" height="59" opacity="0.2" stroke="none" width="209.83349609375" x="583" y="1031"/></g><g transform="translate(-198,-278) scale(1,1)"><rect fill="#ffffff" height="59" stroke="none" width="209.83349609375" x="576" y="1024"/></g><g transform="translate(-198,-278) scale(1,1)"><path d="M 576 1024 L 785.83349609375 1024 L 785.83349609375 1083 L 576 1083 L 576 1024 Z Z" fill="none" stroke="#000000" stroke-miterlimit="10"/></g><g transform="translate(-198,-278) scale(1,1)"><path d="M 576 1064 L 785.83349609375 1064" fill="none" stroke="#000000" stroke-miterlimit="10"/></g><g transform="translate(-198,-278) scale(1,1)"><path d="M 576 1074 L 785.83349609375 1074" fill="none" stroke="#000000" stroke-miterlimit="10"/></g><g transform="translate(-198,-278) scale(1,1)"><g><path fill="none" stroke="none"/><text fill="#000000" font-family="Arial" font-size="13px" font-style="normal" font-weight="bold" stroke="none" text-decoration="none" x="653.091796875" y="1043.5">exception</text></g></g><g transform="translate(-198,-278) scale(1,1)"><g><path fill="none" stroke="none"/><text fill="#000000" font-family="Arial" font-size="13px" font-style="normal" font-weight="normal" stroke="none" text-decoration="none" x="653.11083984375" y="1058.5">(from std)</text></g></g><g transform="translate(-198,-278) scale(1,1)"><path d="M 336 920 L 336 984 L 688 984 L 688 1024" fill="none" stroke="#000000" stroke-miterlimit="10"/></g><g transform="translate(-198,-278) scale(1,1)"><path d="M 679.580964487968 1003.6746502847517 L 688 1024 L 696.419035512032 1003.6746502847517" fill="#FFFFFF" stroke="none"/></g><g transform="translate(-198,-278) scale(1,1)"><path d="M 679.580964487968 1003.6746502847517 L 688 1024 L 696.419035512032 1003.6746502847517 L 679.580964487968 1003.6746502847517" fill="none" stroke="#000000" stroke-miterlimit="10"/></g><g transform="translate(-198,-278) scale(1,1)"><path d="M 563 904 L 563 984 L 688 984 L 688 1024" fill="none" stroke="#000000" stroke-miterlimit="10"/></g><g transform="translate(-198,-278) scale(1,1)"><path d="M 679.580964487968 1003.6746502847517 L 688 1024 L 696.419035512032 1003.6746502847517" fill="#FFFFFF" stroke="none"/></g><g transform="translate(-198,-278) scale(1,1)"><path d="M 679.580964487968 1003.6746502847517 L 688 1024 L 696.419035512032 1003.6746502847517 L 679.580964487968 1003.6746502847517" fill="none" stroke="#000000" stroke-miterlimit="10"/></g><g transform="translate(-198,-278) scale(1,1)"><path d="M 472 808 L 472 984 L 688 984 L 688 1024" fill="none" stroke="#000000" stroke-miterlimit="10"/></g><g transform="translate(-198,-278) scale(1,1)"><path d="M 679.580964487968 1003.6746502847517 L 688 1024 L 696.419035512032 1003.6746502847517" fill="#FFFFFF" stroke="none"/></g><g transform="translate(-198,-278) scale(1,1)"><path d="M 679.580964487968 1003.6746502847517 L 688 1024 L 696.419035512032 1003.6746502847517 L 679.580964487968 1003.6746502847517" fill="none" stroke="#000000" stroke-miterlimit="10"/></g><g transform="translate(-198,-278) scale(1,1)"><path d="M 800 904 L 800 984 L 688 984 L 688 1024" fill="none" stroke="#000000" stroke-miterlimit="10"/></g><g transform="translate(-198,-278) scale(1,1)"><path d="M 679.580964487968 1003.6746502847517 L 688 1024 L 696.419035512032 1003.6746502847517" fill="#FFFFFF" stroke="none"/></g><g transform="translate(-198,-278) scale(1,1)"><path d="M 679.580964487968 1003.6746502847517 L 688 1024 L 696.419035512032 1003.6746502847517 L 679.580964487968 1003.6746502847517" fill="none" stroke="#000000" stroke-miterlimit="10"/></g><g transform="translate(-198,-278) scale(1,1)"><path d="M 1016 816 L 1016 984 L 688 984 L 688 1024" fill="none" stroke="#000000" stroke-miterlimit="10"/></g><g transform="translate(-198,-278) scale(1,1)"><path d="M 679.580964487968 1003.6746502847517 L 688 1024 L 696.419035512032 1003.6746502847517" fill="#FFFFFF" stroke="none"/></g><g transform="translate(-198,-278) scale(1,1)"><path d="M 679.580964487968 1003.6746502847517 L 688 1024 L 696.419035512032 1003.6746502847517 L 679.580964487968 1003.6746502847517" fill="none" stroke="#000000" stroke-miterlimit="10"/></g><g transform="translate(-198,-278) scale(1,1)"><path d="M 1133 904 L 1133 984 L 688 984 L 688 1024" fill="none" stroke="#000000" stroke-miterlimit="10"/></g><g transform="translate(-198,-278) scale(1,1)"><path d="M 679.580964487968 1003.6746502847517 L 688 1024 L 696.419035512032 1003.6746502847517" fill="#FFFFFF" stroke="none"/></g><g transform="translate(-198,-278) scale(1,1)"><path d="M 679.580964487968 1003.6746502847517 L 688 1024 L 696.419035512032 1003.6746502847517 L 679.580964487968 1003.6746502847517" fill="none" stroke="#000000" stroke-miterlimit="10"/></g><g transform="translate(-198,-278) scale(1,1)"><rect fill="#C0C0C0" height="208" opacity="0.2" stroke="none" width="280" x="615" y="439"/></g><g transform="translate(-198,-278) scale(1,1)"><rect fill="#ffffff" height="208" stroke="none" width="280" x="608" y="432"/></g><g transform="translate(-198,-278) scale(1,1)"><path d="M 608 432 L 888 432 L 888 640 L 608 640 L 608 432 Z Z" fill="none" stroke="#000000" stroke-miterlimit="10"/></g><g transform="translate(-198,-278) scale(1,1)"><path d="M 608 472 L 888 472" fill="none" stroke="#000000" stroke-miterlimit="10"/></g><g transform="translate(-198,-278) scale(1,1)"><path d="M 608 482 L 888 482" fill="none" stroke="#000000" stroke-miterlimit="10"/></g><g transform="translate(-198,-278) scale(1,1)"><g><path fill="none" stroke="none"/><text fill="#000000" font-family="Arial" font-size="13px" font-style="normal" font-weight="bold" stroke="none" text-decoration="none" x="701.024169921875" y="451.5">GuardedFacade</text></g></g><g transform="translate(-198,-278) scale(1,1)"><g><path fill="none" stroke="none"/><text fill="#000000" font-family="Arial" font-size="13px" font-style="normal" font-weight="normal" stroke="none" text-decoration="none" x="649.741455078125" y="466.5">(from BuildingManagmentSystem)</text></g></g><g transform="translate(-198,-278) scale(1,1)"><g><path fill="none" stroke="none"/><text fill="#000000" font-family="Arial" font-size="13px" font-style="normal" font-weight="normal" stroke="none" text-decoration="none" x="613" y="499.5">+get_http_adapter(): HttpAdapter</text></g></g><g transform="translate(-198,-278) scale(1,1)"><g><path fill="none" stroke="none"/><text fill="#000000" font-family="Arial" font-size="13px" font-style="normal" font-weight="normal" stroke="none" text-decoration="none" x="613" y="514.5">+find(path: list&lt;int&gt;): Component</text></g></g><g transform="translate(-198,-278) scale(1,1)"><g><path fill="none" stroke="none"/><text fill="#000000" font-family="Arial" font-size="13px" font-style="normal" font-weight="normal" stroke="none" text-decoration="none" x="613" y="529.5">+add(path: list&lt;int&gt;, eq: Equipment): void</text></g></g><g transform="translate(-198,-278) scale(1,1)"><g><path fill="none" stroke="none"/><text fill="#000000" font-family="Arial" font-size="13px" font-style="normal" font-weight="normal" stroke="none" text-decoration="none" x="613" y="544.5">+add(path: list&lt;int&gt;, child: Component): void</text></g></g><g transform="translate(-198,-278) scale(1,1)"><g><path fill="none" stroke="none"/><text fill="#000000" font-family="Arial" font-size="13px" font-style="normal" font-weight="normal" stroke="none" text-decoration="none" x="613" y="559.5">+remove(path: list&lt;int&gt;): void</text></g></g><g transform="translate(-198,-278) scale(1,1)"><g><path fill="none" stroke="none"/><text fill="#000000" font-family="Arial" font-size="13px" font-style="normal" font-weight="normal" stroke="none" text-decoration="none" x="613" y="574.5">+remove(path: list&lt;int&gt;, eq: int): void</text></g></g><g transform="translate(-198,-278) scale(1,1)"><g><path fill="none" stroke="none"/><text fill="#000000" font-family="Arial" font-size="13px" font-style="normal" font-weight="normal" stroke="none" text-decoration="none" x="613" y="589.5">+move(from: list&lt;int&gt;, to: list&lt;int&gt;, eq: int): void</text></g></g><g transform="translate(-198,-278) scale(1,1)"><g><path fill="none" stroke="none"/><text fill="#000000" font-family="Arial" font-size="13px" font-style="normal" font-weight="normal" stroke="none" text-decoration="none" x="613" y="604.5">+get_structure(path: list&lt;int&gt;): string</text></g></g><g transform="translate(-198,-278) scale(1,1)"><g><path fill="none" stroke="none"/><text fill="#000000" font-family="Arial" font-size="13px" font-style="normal" font-weight="normal" stroke="none" text-decoration="none" x="613" y="619.5">+get_equipment(path: list&lt;int&gt;): string</text></g></g><g transform="translate(-198,-278) scale(1,1)"><g><path fill="none" stroke="none"/><text fill="#000000" font-family="Arial" font-size="13px" font-style="normal" font-weight="normal" stroke="none" text-decoration="none" x="613" y="634.5">+get_full_info(path: list&lt;int&gt;): string</text></g></g><g transform="translate(-198,-278) scale(1,1)"><rect fill="#C0C0C0" height="147" opacity="0.2" stroke="none" width="288.296875" x="991" y="463"/></g><g transform="translate(-198,-278) scale(1,1)"><rect fill="#ffffff" height="147" stroke="none" width="288.296875" x="984" y="456"/></g><g transform="translate(-198,-278) scale(1,1)"><path d="M 984 456 L 1272.296875 456 L 1272.296875 603 L 984 603 L 984 456 Z Z" fill="none" stroke="#000000" stroke-miterlimit="10"/></g><g transform="translate(-198,-278) scale(1,1)"><path d="M 984 496 L 1272.296875 496" fill="none" stroke="#000000" stroke-miterlimit="10"/></g><g transform="translate(-198,-278) scale(1,1)"><path d="M 984 506 L 1272.296875 506" fill="none" stroke="#000000" stroke-miterlimit="10"/></g><g transform="translate(-198,-278) scale(1,1)"><g><path fill="none" stroke="none"/><text fill="#000000" font-family="Arial" font-size="13px" font-style="normal" font-weight="bold" stroke="none" text-decoration="none" x="1093.461669921875" y="475.5">HttpAdapter</text></g></g><g transform="translate(-198,-278) scale(1,1)"><g><path fill="none" stroke="none"/><text fill="#000000" font-family="Arial" font-size="13px" font-style="normal" font-weight="normal" stroke="none" text-decoration="none" x="1029.889892578125" y="490.5">(from BuildingManagmentSystem)</text></g></g><g transform="translate(-198,-278) scale(1,1)"><g><path fill="none" stroke="none"/><text fill="#000000" font-family="Arial" font-size="13px" font-style="normal" font-weight="normal" stroke="none" text-decoration="none" x="989" y="523.5">+operator()()</text></g></g><g transform="translate(-198,-278) scale(1,1)"><g><path fill="none" stroke="none"/><text fill="#000000" font-family="Arial" font-size="13px" font-style="normal" font-weight="normal" stroke="none" text-decoration="none" x="989" y="538.5">+respond_to_request(): HttpResponse</text></g></g><g transform="translate(-198,-278) scale(1,1)"><g><path fill="none" stroke="none"/><text fill="#000000" font-family="Arial" font-size="13px" font-style="normal" font-weight="normal" stroke="none" text-decoration="none" x="989" y="553.5">+respond_to_get(regex_match: smatch): void</text></g></g><g transform="translate(-198,-278) scale(1,1)"><g><path fill="none" stroke="none"/><text fill="#000000" font-family="Arial" font-size="13px" font-style="normal" font-weight="normal" stroke="none" text-decoration="none" x="989" y="568.5">+respond_to_put(regex_match: smatch): void</text></g></g><g transform="translate(-198,-278) scale(1,1)"><g><path fill="none" stroke="none"/><text fill="#000000" font-family="Arial" font-size="13px" font-style="normal" font-weight="normal" stroke="none" text-decoration="none" x="989" y="583.5">+respond_to_post(regex_match: smatch): void</text></g></g><g transform="translate(-198,-278) scale(1,1)"><g><path fill="none" stroke="none"/><text fill="#000000" font-family="Arial" font-size="13px" font-style="normal" font-weight="normal" stroke="none" text-decoration="none" x="989" y="598.5">+respond_to_delete(regex_match: smatch): void</text></g></g><g transform="translate(-198,-278) scale(1,1)"><rect fill="#C0C0C0" height="15" opacity="0.2" stroke="none" width="70.40000000000009" x="1431" y="503"/></g><g transform="translate(-198,-278) scale(1,1)"><rect fill="#C0C0C0" height="50" opacity="0.2" stroke="none" width="176" x="1431" y="517"/></g><g transform="translate(-198,-278) scale(1,1)"><rect fill="#ffffff" height="49" stroke="none" width="176" x="1424" y="511"/></g><g transform="translate(-198,-278) scale(1,1)"><path d="M 1424 511 L 1600 511 L 1600 560 L 1424 560 L 1424 511 Z Z" fill="none" stroke="#000000" stroke-miterlimit="10"/></g><g transform="translate(-198,-278) scale(1,1)"><rect fill="#ffffff" height="15" stroke="none" width="70.40000000000009" x="1424" y="496"/></g><g transform="translate(-198,-278) scale(1,1)"><path d="M 1424 496 L 1494.4 496 L 1494.4 511 L 1424 511 L 1424 496 Z Z" fill="none" stroke="#000000" stroke-miterlimit="10"/></g><g transform="translate(-198,-278) scale(1,1)"><rect fill="#ffffff" height="50" stroke="none" width="176" x="1424" y="510"/></g><g transform="translate(-198,-278) scale(1,1)"><path d="M 1424 510 L 1600 510 L 1600 560 L 1424 560 L 1424 510 Z Z" fill="none" stroke="#000000" stroke-miterlimit="10"/></g><g transform="translate(-198,-278) scale(1,1)"><path d="M 1486.4 499 L 1486.4 503" fill="none" stroke="#000000" stroke-miterlimit="10"/></g><g transform="translate(-198,-278) scale(1,1)"><path d="M 1483.4 507 L 1483.4 503 L 1489.4 503" fill="none" stroke="#000000" stroke-miterlimit="10"/></g><g transform="translate(-198,-278) scale(1,1)"><path d="M 1489.4 507 L 1489.4 503 L 1483.4 503" fill="none" stroke="#000000" stroke-miterlimit="10"/></g><g transform="translate(-198,-278) scale(1,1)"><g><path fill="none" stroke="none"/><text fill="#000000" font-family="Arial" font-size="13px" font-style="normal" font-weight="bold" stroke="none" text-decoration="none" x="1480.9345703125" y="530.5">HttpServer</text></g></g><g transform="translate(-198,-278) scale(1,1)"><rect fill="#C0C0C0" height="15" opacity="0.2" stroke="none" width="118.39999999999998" x="239" y="343"/></g><g transform="translate(-198,-278) scale(1,1)"><rect fill="#C0C0C0" height="354" opacity="0.2" stroke="none" width="296" x="239" y="357"/></g><g transform="translate(-198,-278) scale(1,1)"><rect fill="#ffffff" height="353" stroke="none" width="296" x="232" y="351"/></g><g transform="translate(-198,-278) scale(1,1)"><path d="M 232 351 L 528 351 L 528 704 L 232 704 L 232 351 Z Z" fill="none" stroke="#000000" stroke-miterlimit="10"/></g><g transform="translate(-198,-278) scale(1,1)"><rect fill="#ffffff" height="15" stroke="none" width="118.39999999999998" x="232" y="336"/></g><g transform="translate(-198,-278) scale(1,1)"><path d="M 232 336 L 350.4 336 L 350.4 351 L 232 351 L 232 336 Z Z" fill="none" stroke="#000000" stroke-miterlimit="10"/></g><g transform="translate(-198,-278) scale(1,1)"><rect fill="#ffffff" height="354" stroke="none" width="296" x="232" y="350"/></g><g transform="translate(-198,-278) scale(1,1)"><path d="M 232 350 L 528 350 L 528 704 L 232 704 L 232 350 Z Z" fill="none" stroke="#000000" stroke-miterlimit="10"/></g><g transform="translate(-198,-278) scale(1,1)"><path d="M 342.4 339 L 342.4 343" fill="none" stroke="#000000" stroke-miterlimit="10"/></g><g transform="translate(-198,-278) scale(1,1)"><path d="M 339.4 347 L 339.4 343 L 345.4 343" fill="none" stroke="#000000" stroke-miterlimit="10"/></g><g transform="translate(-198,-278) scale(1,1)"><path d="M 345.4 347 L 345.4 343 L 339.4 343" fill="none" stroke="#000000" stroke-miterlimit="10"/></g><g transform="translate(-198,-278) scale(1,1)"><g><path fill="none" stroke="none"/><text fill="#000000" font-family="Arial" font-size="13px" font-style="normal" font-weight="bold" stroke="none" text-decoration="none" x="326.175048828125" y="370.5">CompositePatterm</text></g></g><g transform="translate(-198,-278) scale(1,1)"><g><path fill="none" stroke="none"/><text fill="#000000" font-family="Arial" font-size="13px" font-style="normal" font-weight="normal" stroke="none" text-decoration="none" x="281.741455078125" y="385.5">(from BuildingManagmentSystem)</text></g></g><g transform="translate(-198,-278) scale(1,1)"><rect fill="#ffffff" height="280" stroke="none" width="241.33056640625" x="256" y="400"/></g><g transform="translate(-198,-278) scale(1,1)"><path d="M 256 400 L 497.33056640625 400 L 497.33056640625 680 L 256 680 L 256 400 Z Z" fill="none" stroke="#000000" stroke-miterlimit="10"/></g><g transform="translate(-198,-278) scale(1,1)"><path d="M 256 440 L 497.33056640625 440" fill="none" stroke="#000000" stroke-miterlimit="10"/></g><g transform="translate(-198,-278) scale(1,1)"><path d="M 256 493 L 497.33056640625 493" fill="none" stroke="#000000" stroke-miterlimit="10"/></g><g transform="translate(-198,-278) scale(1,1)"><g><path fill="none" stroke="none"/><text fill="#000000" font-family="Arial" font-size="13px" font-style="normal" font-weight="bold" stroke="none" text-decoration="none" x="343.060791015625" y="419.5">Component</text></g></g><g transform="translate(-198,-278) scale(1,1)"><g><path fill="none" stroke="none"/><text fill="#000000" font-family="Arial" font-size="13px" font-style="normal" font-weight="normal" stroke="none" text-decoration="none" x="303.705322265625" y="434.5">(from CompositePatterm)</text></g></g><g transform="translate(-198,-278) scale(1,1)"><g><path fill="none" stroke="none"/><text fill="#000000" font-family="Arial" font-size="13px" font-style="normal" font-weight="normal" stroke="none" text-decoration="none" x="261" y="457.5">-id: int</text></g></g><g transform="translate(-198,-278) scale(1,1)"><g><path fill="none" stroke="none"/><text fill="#000000" font-family="Arial" font-size="13px" font-style="normal" font-weight="normal" stroke="none" text-decoration="none" x="261" y="472.5">-name: string</text></g></g><g transform="translate(-198,-278) scale(1,1)"><g><path fill="none" stroke="none"/><text fill="#000000" font-family="Arial" font-size="13px" font-style="normal" font-weight="normal" stroke="none" text-decoration="none" x="261" y="487.5">-guard: shared_mutex</text></g></g><g transform="translate(-198,-278) scale(1,1)"><g><path fill="none" stroke="none"/><text fill="#000000" font-family="Arial" font-size="13px" font-style="italic" font-weight="normal" stroke="none" text-decoration="none" x="261" y="510.5">+add_child(child: Component): void</text></g></g><g transform="translate(-198,-278) scale(1,1)"><g><path fill="none" stroke="none"/><text fill="#000000" font-family="Arial" font-size="13px" font-style="italic" font-weight="normal" stroke="none" text-decoration="none" x="261" y="525.5">+add_equipment(eq: Equipment): void</text></g></g><g transform="translate(-198,-278) scale(1,1)"><g><path fill="none" stroke="none"/><text fill="#000000" font-family="Arial" font-size="13px" font-style="italic" font-weight="normal" stroke="none" text-decoration="none" x="261" y="540.5">+delete_child(child_id: int): void</text></g></g><g transform="translate(-198,-278) scale(1,1)"><g><path fill="none" stroke="none"/><text fill="#000000" font-family="Arial" font-size="13px" font-style="italic" font-weight="normal" stroke="none" text-decoration="none" x="261" y="555.5">+delete_equipment(eq_id: int): void</text></g></g><g transform="translate(-198,-278) scale(1,1)"><g><path fill="none" stroke="none"/><text fill="#000000" font-family="Arial" font-size="13px" font-style="italic" font-weight="normal" stroke="none" text-decoration="none" x="261" y="570.5">+get_child(child_id: int): Component</text></g></g><g transform="translate(-198,-278) scale(1,1)"><g><path fill="none" stroke="none"/><text fill="#000000" font-family="Arial" font-size="13px" font-style="italic" font-weight="normal" stroke="none" text-decoration="none" x="261" y="585.5">+get_equipment(eq_id: int): Equipment</text></g></g><g transform="translate(-198,-278) scale(1,1)"><g><path fill="none" stroke="none"/><text fill="#000000" font-family="Arial" font-size="13px" font-style="italic" font-weight="normal" stroke="none" text-decoration="none" x="261" y="600.5">+get_structure_json(Parameter2): void</text></g></g><g transform="translate(-198,-278) scale(1,1)"><g><path fill="none" stroke="none"/><text fill="#000000" font-family="Arial" font-size="13px" font-style="italic" font-weight="normal" stroke="none" text-decoration="none" x="261" y="615.5">+get_equipment_json(Parameter2): void</text></g></g><g transform="translate(-198,-278) scale(1,1)"><g><path fill="none" stroke="none"/><text fill="#000000" font-family="Arial" font-size="13px" font-style="italic" font-weight="normal" stroke="none" text-decoration="none" x="261" y="630.5">#to_json(j: json): void</text></g></g><g transform="translate(-198,-278) scale(1,1)"><g><path fill="none" stroke="none"/><text fill="#000000" font-family="Arial" font-size="13px" font-style="italic" font-weight="normal" stroke="none" text-decoration="none" x="261" y="645.5">#from_json(j: json): void</text></g></g><g transform="translate(-198,-278) scale(1,1)"><g><path fill="none" stroke="none"/><text fill="#000000" font-family="Arial" font-size="13px" font-style="normal" font-weight="normal" stroke="none" text-decoration="none" x="261" y="660.5">+get_read_lock(): read_lock</text></g></g><g transform="translate(-198,-278) scale(1,1)"><g><path fill="none" stroke="none"/><text fill="#000000" font-family="Arial" font-size="13px" font-style="normal" font-weight="normal" stroke="none" text-decoration="none" x="261" y="675.5">+get_write_lock(): write_lock</text></g></g><g transform="translate(-198,-278) scale(1,1)"><path d="M 608 536 L 497 536" fill="none" stroke="#000000" stroke-miterlimit="10"/></g><g transform="translate(-198,-278) scale(1,1)"><path d="M 507.16267485762415 531.790482243984 L 497 536 L 507.16267485762415 540.209517756016" fill="none" stroke="#000000" stroke-miterlimit="10"/></g><g transform="translate(-198,-278) scale(1,1)"><g><path fill="none" stroke="none"/><text fill="#000000" font-family="Arial" font-size="13px" font-style="normal" font-weight="normal" stroke="none" text-decoration="none" x="532.5" y="524.5">-root_node</text></g></g><g transform="translate(-198,-278) scale(1,1)"><path d="M 984 533 L 888 533" fill="none" stroke="#000000" stroke-miterlimit="10"/></g><g transform="translate(-198,-278) scale(1,1)"><path d="M 898.1626748576241 528.790482243984 L 888 533 L 898.1626748576241 537.209517756016" fill="none" stroke="#000000" stroke-miterlimit="10"/></g><g transform="translate(-198,-278) scale(1,1)"><g><path fill="none" stroke="none"/><text fill="#000000" font-family="Arial" font-size="13px" font-style="normal" font-weight="normal" stroke="none" text-decoration="none" x="902.5" y="524.5">-my_system</text></g></g><g transform="translate(-198,-278) scale(1,1)"><path d="M 1273 529 L 1423 528" fill="none" stroke="#000000" stroke-miterlimit="10"/></g><g transform="translate(-198,-278) scale(1,1)"><path d="M 1412.8656138001625 532.2771738744813 L 1423 528 L 1412.809488143972 523.8583254458912" fill="none" stroke="#000000" stroke-miterlimit="10"/></g><g transform="translate(-198,-278) scale(1,1)"><g><path fill="none" stroke="none"/><text fill="#000000" font-family="Arial" font-size="13px" font-style="normal" font-weight="normal" stroke="none" text-decoration="none" x="1293" y="522">uses classes from</text></g></g></g></svg>