<?xml version="1.0" encoding="UTF-8" standalone="no"?><svg xmlns="http://www.w3.org/2000/svg" xmlns:xlink="http://www.w3.org/1999/xlink" height="807" version="1.1" width="980"><defs/><g><g transform="translate(-262,-366) scale(1,1)"><rect fill="#C0C0C0" height="15" opacity="0.2" stroke="none" width="377.6" x="295" y="383"/></g><g transform="translate(-262,-366) scale(1,1)"><rect fill="#C0C0C0" height="730" opacity="0.2" stroke="none" width="944" x="295" y="397"/></g><g transform="translate(-262,-366) scale(1,1)"><rect fill="#ffffff" height="729" stroke="none" width="944" x="288" y="391"/></g><g transform="translate(-262,-366) scale(1,1)"><path d="M 288 391 L 1232 391 L 1232 1120 L 288 1120 L 288 391 Z Z" fill="none" stroke="#000000" stroke-miterlimit="10"/></g><g transform="translate(-262,-366) scale(1,1)"><rect fill="#ffffff" height="15" stroke="none" width="377.6" x="288" y="376"/></g><g transform="translate(-262,-366) scale(1,1)"><path d="M 288 376 L 665.6 376 L 665.6 391 L 288 391 L 288 376 Z Z" fill="none" stroke="#000000" stroke-miterlimit="10"/></g><g transform="translate(-262,-366) scale(1,1)"><rect fill="#ffffff" height="730" stroke="none" width="944" x="288" y="390"/></g><g transform="translate(-262,-366) scale(1,1)"><path d="M 288 390 L 1232 390 L 1232 1120 L 288 1120 L 288 390 Z Z" fill="none" stroke="#000000" stroke-miterlimit="10"/></g><g transform="translate(-262,-366) scale(1,1)"><path d="M 657.6 379 L 657.6 383" fill="none" stroke="#000000" stroke-miterlimit="10"/></g><g transform="translate(-262,-366) scale(1,1)"><path d="M 654.6 387 L 654.6 383 L 660.6 383" fill="none" stroke="#000000" stroke-miterlimit="10"/></g><g transform="translate(-262,-366) scale(1,1)"><path d="M 660.6 387 L 660.6 383 L 654.6 383" fill="none" stroke="#000000" stroke-miterlimit="10"/></g><g transform="translate(-262,-366) scale(1,1)"><g><path fill="none" stroke="none"/><text fill="#000000" font-family="Arial" font-size="13px" font-style="normal" font-weight="bold" stroke="none" text-decoration="none" x="728.9345703125" y="410.5">HttpServer</text></g></g><g transform="translate(-262,-366) scale(1,1)"><rect fill="#C0C0C0" height="59" opacity="0.2" stroke="none" width="192" x="983" y="655"/></g><g transform="translate(-262,-366) scale(1,1)"><rect fill="#ffffff" height="59" stroke="none" width="192" x="976" y="648"/></g><g transform="translate(-262,-366) scale(1,1)"><path d="M 976 648 L 1168 648 L 1168 707 L 976 707 L 976 648 Z Z" fill="none" stroke="#000000" stroke-miterlimit="10"/></g><g transform="translate(-262,-366) scale(1,1)"><path d="M 976 688 L 1168 688" fill="none" stroke="#000000" stroke-miterlimit="10"/></g><g transform="translate(-262,-366) scale(1,1)"><path d="M 976 698 L 1168 698" fill="none" stroke="#000000" stroke-miterlimit="10"/></g><g transform="translate(-262,-366) scale(1,1)"><g><path fill="none" stroke="none"/><text fill="#000000" font-family="Arial" font-size="13px" font-style="normal" font-weight="bold" stroke="none" text-decoration="none" x="1047.7900390625" y="667.5">Request</text></g></g><g transform="translate(-262,-366) scale(1,1)"><g><path fill="none" stroke="none"/><text fill="#000000" font-family="Arial" font-size="13px" font-style="normal" font-weight="normal" stroke="none" text-decoration="none" x="1021.799560546875" y="682.5">(from HttpServer)</text></g></g><g transform="translate(-262,-366) scale(1,1)"><rect fill="#C0C0C0" height="59" opacity="0.2" stroke="none" width="192" x="631" y="655"/></g><g transform="translate(-262,-366) scale(1,1)"><rect fill="#ffffff" height="59" stroke="none" width="192" x="624" y="648"/></g><g transform="translate(-262,-366) scale(1,1)"><path d="M 624 648 L 816 648 L 816 707 L 624 707 L 624 648 Z Z" fill="none" stroke="#000000" stroke-miterlimit="10"/></g><g transform="translate(-262,-366) scale(1,1)"><path d="M 624 688 L 816 688" fill="none" stroke="#000000" stroke-miterlimit="10"/></g><g transform="translate(-262,-366) scale(1,1)"><path d="M 624 698 L 816 698" fill="none" stroke="#000000" stroke-miterlimit="10"/></g><g transform="translate(-262,-366) scale(1,1)"><g><path fill="none" stroke="none"/><text fill="#000000" font-family="Arial" font-size="13px" font-style="normal" font-weight="bold" stroke="none" text-decoration="none" x="690.73095703125" y="667.5">Response</text></g></g><g transform="translate(-262,-366) scale(1,1)"><g><path fill="none" stroke="none"/><text fill="#000000" font-family="Arial" font-size="13px" font-style="normal" font-weight="normal" stroke="none" text-decoration="none" x="669.799560546875" y="682.5">(from HttpServer)</text></g></g><g transform="translate(-262,-366) scale(1,1)"><rect fill="#C0C0C0" height="160" opacity="0.2" stroke="none" width="189.29248046875" x="807" y="423"/></g><g transform="translate(-262,-366) scale(1,1)"><rect fill="#ffffff" height="160" stroke="none" width="189.29248046875" x="800" y="416"/></g><g transform="translate(-262,-366) scale(1,1)"><path d="M 800 416 L 989.29248046875 416 L 989.29248046875 576 L 800 576 L 800 416 Z Z" fill="none" stroke="#000000" stroke-miterlimit="10"/></g><g transform="translate(-262,-366) scale(1,1)"><path d="M 800 456 L 989.29248046875 456" fill="none" stroke="#000000" stroke-miterlimit="10"/></g><g transform="translate(-262,-366) scale(1,1)"><path d="M 800 509 L 989.29248046875 509" fill="none" stroke="#000000" stroke-miterlimit="10"/></g><g transform="translate(-262,-366) scale(1,1)"><g><path fill="none" stroke="none"/><text fill="#000000" font-family="Arial" font-size="13px" font-style="normal" font-weight="bold" stroke="none" text-decoration="none" x="868.271728515625" y="435.5">Message</text></g></g><g transform="translate(-262,-366) scale(1,1)"><g><path fill="none" stroke="none"/><text fill="#000000" font-family="Arial" font-size="13px" font-style="normal" font-weight="normal" stroke="none" text-decoration="none" x="844.44580078125" y="450.5">(from HttpServer)</text></g></g><g transform="translate(-262,-366) scale(1,1)"><g><path fill="none" stroke="none"/><text fill="#000000" font-family="Arial" font-size="13px" font-style="normal" font-weight="normal" stroke="none" text-decoration="none" x="805" y="473.5">-first_line: string</text></g></g><g transform="translate(-262,-366) scale(1,1)"><g><path fill="none" stroke="none"/><text fill="#000000" font-family="Arial" font-size="13px" font-style="normal" font-weight="normal" stroke="none" text-decoration="none" x="805" y="488.5">-headers: dictionary</text></g></g><g transform="translate(-262,-366) scale(1,1)"><g><path fill="none" stroke="none"/><text fill="#000000" font-family="Arial" font-size="13px" font-style="normal" font-weight="normal" stroke="none" text-decoration="none" x="805" y="503.5">-body: string</text></g></g><g transform="translate(-262,-366) scale(1,1)"><g><path fill="none" stroke="none"/><text fill="#000000" font-family="Arial" font-size="13px" font-style="normal" font-weight="normal" stroke="none" text-decoration="none" x="805" y="526.5">+get_http_version(): string</text></g></g><g transform="translate(-262,-366) scale(1,1)"><g><path fill="none" stroke="none"/><text fill="#000000" font-family="Arial" font-size="13px" font-style="normal" font-weight="normal" stroke="none" text-decoration="none" x="805" y="541.5">+get_header(): string</text></g></g><g transform="translate(-262,-366) scale(1,1)"><g><path fill="none" stroke="none"/><text fill="#000000" font-family="Arial" font-size="13px" font-style="normal" font-weight="normal" stroke="none" text-decoration="none" x="805" y="556.5">+get_field_value(): string</text></g></g><g transform="translate(-262,-366) scale(1,1)"><g><path fill="none" stroke="none"/><text fill="#000000" font-family="Arial" font-size="13px" font-style="normal" font-weight="normal" stroke="none" text-decoration="none" x="805" y="571.5">+get_body(): string</text></g></g><g transform="translate(-262,-366) scale(1,1)"><rect fill="#C0C0C0" height="160" opacity="0.2" stroke="none" width="282.50146484375" x="311" y="423"/></g><g transform="translate(-262,-366) scale(1,1)"><rect fill="#ffffff" height="160" stroke="none" width="282.50146484375" x="304" y="416"/></g><g transform="translate(-262,-366) scale(1,1)"><path d="M 304 416 L 586.50146484375 416 L 586.50146484375 576 L 304 576 L 304 416 Z Z" fill="none" stroke="#000000" stroke-miterlimit="10"/></g><g transform="translate(-262,-366) scale(1,1)"><path d="M 304 456 L 586.50146484375 456" fill="none" stroke="#000000" stroke-miterlimit="10"/></g><g transform="translate(-262,-366) scale(1,1)"><path d="M 304 539 L 586.50146484375 539" fill="none" stroke="#000000" stroke-miterlimit="10"/></g><g transform="translate(-262,-366) scale(1,1)"><g><path fill="none" stroke="none"/><text fill="#000000" font-family="Arial" font-size="13px" font-style="normal" font-weight="bold" stroke="none" text-decoration="none" x="415.9912109375" y="435.5">TcpServer</text></g></g><g transform="translate(-262,-366) scale(1,1)"><g><path fill="none" stroke="none"/><text fill="#000000" font-family="Arial" font-size="13px" font-style="normal" font-weight="normal" stroke="none" text-decoration="none" x="395.05029296875" y="450.5">(from HttpServer)</text></g></g><g transform="translate(-262,-366) scale(1,1)"><g><path fill="none" stroke="none"/><text fill="#000000" font-family="Arial" font-size="13px" font-style="normal" font-weight="normal" stroke="none" text-decoration="none" x="309" y="473.5">-server_socket_descriptor: int</text></g></g><g transform="translate(-262,-366) scale(1,1)"><g><path fill="none" stroke="none"/><text fill="#000000" font-family="Arial" font-size="13px" font-style="normal" font-weight="normal" stroke="none" text-decoration="none" x="309" y="488.5">-server_address: sockaddr_in</text></g></g><g transform="translate(-262,-366) scale(1,1)"><g><path fill="none" stroke="none"/><text fill="#000000" font-family="Arial" font-size="13px" font-style="normal" font-weight="normal" stroke="none" text-decoration="none" x="309" y="503.5">-server_port uint16_t</text></g></g><g transform="translate(-262,-366) scale(1,1)"><g><path fill="none" stroke="none"/><text fill="#000000" font-family="Arial" font-size="13px" font-style="normal" font-weight="normal" stroke="none" text-decoration="none" x="309" y="518.5">-queue_size: int</text></g></g><g transform="translate(-262,-366) scale(1,1)"><g><path fill="none" stroke="none"/><text fill="#000000" font-family="Arial" font-size="13px" font-style="normal" font-weight="normal" stroke="none" text-decoration="none" x="309" y="533.5">-thread_behaviour: functor</text></g></g><g transform="translate(-262,-366) scale(1,1)"><g><path fill="none" stroke="none"/><text fill="#000000" font-family="Arial" font-size="13px" font-style="normal" font-weight="normal" stroke="none" text-decoration="none" x="309" y="556.5">+TcpServer(port: int, thread_behaviour: functor)</text></g></g><g transform="translate(-262,-366) scale(1,1)"><g><path fill="none" stroke="none"/><text fill="#000000" font-family="Arial" font-size="13px" font-style="normal" font-weight="normal" stroke="none" text-decoration="none" x="309" y="571.5">+loop()</text></g></g><g transform="translate(-262,-366) scale(1,1)"><rect fill="#C0C0C0" height="120" opacity="0.2" stroke="none" width="277.0107421875" x="935" y="791"/></g><g transform="translate(-262,-366) scale(1,1)"><rect fill="#ffffff" height="120" stroke="none" width="277.0107421875" x="928" y="784"/></g><g transform="translate(-262,-366) scale(1,1)"><path d="M 928 784 L 1205.0107421875 784 L 1205.0107421875 904 L 928 904 L 928 784 Z Z" fill="none" stroke="#000000" stroke-miterlimit="10"/></g><g transform="translate(-262,-366) scale(1,1)"><path d="M 928 824 L 1205.0107421875 824" fill="none" stroke="#000000" stroke-miterlimit="10"/></g><g transform="translate(-262,-366) scale(1,1)"><path d="M 928 847 L 1205.0107421875 847" fill="none" stroke="#000000" stroke-miterlimit="10"/></g><g transform="translate(-262,-366) scale(1,1)"><g><path fill="none" stroke="none"/><text fill="#000000" font-family="Arial" font-size="13px" font-style="normal" font-weight="bold" stroke="none" text-decoration="none" x="1023.15087890625" y="803.5">RequestParser</text></g></g><g transform="translate(-262,-366) scale(1,1)"><g><path fill="none" stroke="none"/><text fill="#000000" font-family="Arial" font-size="13px" font-style="normal" font-weight="normal" stroke="none" text-decoration="none" x="1016.304931640625" y="818.5">(from HttpServer)</text></g></g><g transform="translate(-262,-366) scale(1,1)"><g><path fill="none" stroke="none"/><text fill="#000000" font-family="Arial" font-size="13px" font-style="normal" font-weight="normal" stroke="none" text-decoration="none" x="933" y="841.5">+state: State</text></g></g><g transform="translate(-262,-366) scale(1,1)"><g><path fill="none" stroke="none"/><text fill="#000000" font-family="Arial" font-size="13px" font-style="normal" font-weight="normal" stroke="none" text-decoration="none" x="933" y="864.5">+parse_and_update_buffer(buffer: string): void</text></g></g><g transform="translate(-262,-366) scale(1,1)"><g><path fill="none" stroke="none"/><text fill="#000000" font-family="Arial" font-size="13px" font-style="normal" font-weight="normal" stroke="none" text-decoration="none" x="933" y="879.5">+get_request(): Request</text></g></g><g transform="translate(-262,-366) scale(1,1)"><g><path fill="none" stroke="none"/><text fill="#000000" font-family="Arial" font-size="13px" font-style="normal" font-weight="normal" stroke="none" text-decoration="none" x="933" y="894.5">+is_request_ready(): bool</text></g></g><g transform="translate(-262,-366) scale(1,1)"><rect fill="#C0C0C0" height="100" opacity="0.2" stroke="none" width="192" x="983" y="1015"/></g><g transform="translate(-262,-366) scale(1,1)"><rect fill="#ffffff" height="100" stroke="none" width="192" x="976" y="1008"/></g><g transform="translate(-262,-366) scale(1,1)"><path d="M 976 1008 L 1168 1008 L 1168 1108 L 976 1108 L 976 1008 Z Z" fill="none" stroke="#000000" stroke-miterlimit="10"/></g><g transform="translate(-262,-366) scale(1,1)"><path d="M 976 1048 L 1168 1048" fill="none" stroke="#000000" stroke-miterlimit="10"/></g><g transform="translate(-262,-366) scale(1,1)"><path d="M 976 1071 L 1168 1071" fill="none" stroke="#000000" stroke-miterlimit="10"/></g><g transform="translate(-262,-366) scale(1,1)"><g><path fill="none" stroke="none"/><text fill="#000000" font-family="Arial" font-size="13px" font-style="normal" font-weight="bold" stroke="none" text-decoration="none" x="1030.81005859375" y="1027.5">SocketReader</text></g></g><g transform="translate(-262,-366) scale(1,1)"><g><path fill="none" stroke="none"/><text fill="#000000" font-family="Arial" font-size="13px" font-style="normal" font-weight="normal" stroke="none" text-decoration="none" x="1021.799560546875" y="1042.5">(from HttpServer)</text></g></g><g transform="translate(-262,-366) scale(1,1)"><g><path fill="none" stroke="none"/><text fill="#000000" font-family="Arial" font-size="13px" font-style="normal" font-weight="normal" stroke="none" text-decoration="none" x="981" y="1065.5">+unprocessed_data: string</text></g></g><g transform="translate(-262,-366) scale(1,1)"><g><path fill="none" stroke="none"/><text fill="#000000" font-family="Arial" font-size="13px" font-style="normal" font-weight="normal" stroke="none" text-decoration="none" x="981" y="1088.5">+get_request(): Request</text></g></g><g transform="translate(-262,-366) scale(1,1)"><g><path fill="none" stroke="none"/><text fill="#000000" font-family="Arial" font-size="13px" font-style="normal" font-weight="normal" stroke="none" text-decoration="none" x="981" y="1103.5">+is_connection_ended(): bool</text></g></g><g transform="translate(-262,-366) scale(1,1)"><path d="M 1072 1008 L 1072 904" fill="none" stroke="#000000" stroke-miterlimit="10"/></g><g transform="translate(-262,-366) scale(1,1)"><path d="M 1076.2095177560159 914.1626748576241 L 1072 904 L 1067.7904822439841 914.1626748576241" fill="none" stroke="#000000" stroke-miterlimit="10"/></g><g transform="translate(-262,-366) scale(1,1)"><g><path fill="none" stroke="none"/><text fill="#000000" font-family="Arial" font-size="13px" font-style="normal" font-weight="normal" stroke="none" text-decoration="none" x="1030.5" y="961.5">+owns</text></g></g><g transform="translate(-262,-366) scale(1,1)"><path d="M 720 648 L 720 616 L 896 616 L 896 576" fill="none" stroke="#000000" stroke-miterlimit="10"/></g><g transform="translate(-262,-366) scale(1,1)"><path d="M 904.419035512032 596.3253497152483 L 896 576 L 887.580964487968 596.3253497152483" fill="#FFFFFF" stroke="none"/></g><g transform="translate(-262,-366) scale(1,1)"><path d="M 904.419035512032 596.3253497152483 L 896 576 L 887.580964487968 596.3253497152483 L 904.419035512032 596.3253497152483" fill="none" stroke="#000000" stroke-miterlimit="10"/></g><g transform="translate(-262,-366) scale(1,1)"><path d="M 1032 648 L 1032 616 L 896 616 L 896 576" fill="none" stroke="#000000" stroke-miterlimit="10"/></g><g transform="translate(-262,-366) scale(1,1)"><path d="M 904.419035512032 596.3253497152483 L 896 576 L 887.580964487968 596.3253497152483" fill="#FFFFFF" stroke="none"/></g><g transform="translate(-262,-366) scale(1,1)"><path d="M 904.419035512032 596.3253497152483 L 896 576 L 887.580964487968 596.3253497152483 L 904.419035512032 596.3253497152483" fill="none" stroke="#000000" stroke-miterlimit="10"/></g><g transform="translate(-262,-366) scale(1,1)"><rect fill="#C0C0C0" height="117" opacity="0.2" stroke="none" width="291.9150390625" x="583" y="791"/></g><g transform="translate(-262,-366) scale(1,1)"><rect fill="#ffffff" height="117" stroke="none" width="291.9150390625" x="576" y="784"/></g><g transform="translate(-262,-366) scale(1,1)"><path d="M 576 784 L 867.9150390625 784 L 867.9150390625 901 L 576 901 L 576 784 Z Z" fill="none" stroke="#000000" stroke-miterlimit="10"/></g><g transform="translate(-262,-366) scale(1,1)"><path d="M 576 824 L 867.9150390625 824" fill="none" stroke="#000000" stroke-miterlimit="10"/></g><g transform="translate(-262,-366) scale(1,1)"><path d="M 576 834 L 867.9150390625 834" fill="none" stroke="#000000" stroke-miterlimit="10"/></g><g transform="translate(-262,-366) scale(1,1)"><g><path fill="none" stroke="none"/><text fill="#000000" font-family="Arial" font-size="13px" font-style="normal" font-weight="bold" stroke="none" text-decoration="none" x="672.455322265625" y="803.5">ResponseBuilder</text></g></g><g transform="translate(-262,-366) scale(1,1)"><g><path fill="none" stroke="none"/><text fill="#000000" font-family="Arial" font-size="13px" font-style="normal" font-weight="normal" stroke="none" text-decoration="none" x="671.757080078125" y="818.5">(from HttpServer)</text></g></g><g transform="translate(-262,-366) scale(1,1)"><g><path fill="none" stroke="none"/><text fill="#000000" font-family="Arial" font-size="13px" font-style="normal" font-weight="normal" stroke="none" text-decoration="none" x="581" y="851.5">+set_status_code(statusCode: StatusCode): void</text></g></g><g transform="translate(-262,-366) scale(1,1)"><g><path fill="none" stroke="none"/><text fill="#000000" font-family="Arial" font-size="13px" font-style="normal" font-weight="normal" stroke="none" text-decoration="none" x="581" y="866.5">+set_header(header_fields: dictionary): void</text></g></g><g transform="translate(-262,-366) scale(1,1)"><g><path fill="none" stroke="none"/><text fill="#000000" font-family="Arial" font-size="13px" font-style="normal" font-weight="normal" stroke="none" text-decoration="none" x="581" y="881.5">+set_body(body: string): void</text></g></g><g transform="translate(-262,-366) scale(1,1)"><g><path fill="none" stroke="none"/><text fill="#000000" font-family="Arial" font-size="13px" font-style="normal" font-weight="normal" stroke="none" text-decoration="none" x="581" y="896.5">+get_response(): Response</text></g></g><g transform="translate(-262,-366) scale(1,1)"><path d="M 1080 784 L 1080 707" fill="none" stroke="#000000" stroke-dasharray="3" stroke-miterlimit="10"/></g><g transform="translate(-262,-366) scale(1,1)"><path d="M 1084.2095177560159 717.1626748576241 L 1080 707 L 1075.7904822439841 717.1626748576241" fill="none" stroke="#000000" stroke-miterlimit="10"/></g><g transform="translate(-262,-366) scale(1,1)"><g><path fill="none" stroke="none"/><text fill="#000000" font-family="Arial" font-size="13px" font-style="normal" font-weight="normal" stroke="none" text-decoration="none" x="1031.5" y="750.5">+constructs</text></g></g><g transform="translate(-262,-366) scale(1,1)"><path d="M 721 783 L 720 708" fill="none" stroke="#000000" stroke-dasharray="3" stroke-miterlimit="10"/></g><g transform="translate(-262,-366) scale(1,1)"><path d="M 724.3446339149322 718.105649714156 L 720 708 L 715.926346661846 718.2178935441972" fill="none" stroke="#000000" stroke-miterlimit="10"/></g><g transform="translate(-262,-366) scale(1,1)"><g><path fill="none" stroke="none"/><text fill="#000000" font-family="Arial" font-size="13px" font-style="normal" font-weight="normal" stroke="none" text-decoration="none" x="671.5" y="750.5">+constructs</text></g></g><g transform="translate(-262,-366) scale(1,1)"><rect fill="#C0C0C0" height="147" opacity="0.2" stroke="none" width="288.296875" x="279" y="1023"/></g><g transform="translate(-262,-366) scale(1,1)"><rect fill="#ffffff" height="147" stroke="none" width="288.296875" x="272" y="1016"/></g><g transform="translate(-262,-366) scale(1,1)"><path d="M 272 1016 L 560.296875 1016 L 560.296875 1163 L 272 1163 L 272 1016 Z Z" fill="none" stroke="#000000" stroke-miterlimit="10"/></g><g transform="translate(-262,-366) scale(1,1)"><path d="M 272 1056 L 560.296875 1056" fill="none" stroke="#000000" stroke-miterlimit="10"/></g><g transform="translate(-262,-366) scale(1,1)"><path d="M 272 1066 L 560.296875 1066" fill="none" stroke="#000000" stroke-miterlimit="10"/></g><g transform="translate(-262,-366) scale(1,1)"><g><path fill="none" stroke="none"/><text fill="#000000" font-family="Arial" font-size="13px" font-style="normal" font-weight="bold" stroke="none" text-decoration="none" x="381.461669921875" y="1035.5">HttpAdapter</text></g></g><g transform="translate(-262,-366) scale(1,1)"><g><path fill="none" stroke="none"/><text fill="#000000" font-family="Arial" font-size="13px" font-style="normal" font-weight="normal" stroke="none" text-decoration="none" x="317.889892578125" y="1050.5">(from BuildingManagmentSystem)</text></g></g><g transform="translate(-262,-366) scale(1,1)"><g><path fill="none" stroke="none"/><text fill="#000000" font-family="Arial" font-size="13px" font-style="normal" font-weight="normal" stroke="none" text-decoration="none" x="277" y="1083.5">+operator()()</text></g></g><g transform="translate(-262,-366) scale(1,1)"><g><path fill="none" stroke="none"/><text fill="#000000" font-family="Arial" font-size="13px" font-style="normal" font-weight="normal" stroke="none" text-decoration="none" x="277" y="1098.5">+respond_to_request(): HttpResponse</text></g></g><g transform="translate(-262,-366) scale(1,1)"><g><path fill="none" stroke="none"/><text fill="#000000" font-family="Arial" font-size="13px" font-style="normal" font-weight="normal" stroke="none" text-decoration="none" x="277" y="1113.5">+respond_to_get(regex_match: smatch): void</text></g></g><g transform="translate(-262,-366) scale(1,1)"><g><path fill="none" stroke="none"/><text fill="#000000" font-family="Arial" font-size="13px" font-style="normal" font-weight="normal" stroke="none" text-decoration="none" x="277" y="1128.5">+respond_to_put(regex_match: smatch): void</text></g></g><g transform="translate(-262,-366) scale(1,1)"><g><path fill="none" stroke="none"/><text fill="#000000" font-family="Arial" font-size="13px" font-style="normal" font-weight="normal" stroke="none" text-decoration="none" x="277" y="1143.5">+respond_to_post(regex_match: smatch): void</text></g></g><g transform="translate(-262,-366) scale(1,1)"><g><path fill="none" stroke="none"/><text fill="#000000" font-family="Arial" font-size="13px" font-style="normal" font-weight="normal" stroke="none" text-decoration="none" x="277" y="1158.5">+respond_to_delete(regex_match: smatch): void</text></g></g><g transform="translate(-262,-366) scale(1,1)"><path d="M 507 1015 L 647 902" fill="none" stroke="#000000" stroke-miterlimit="10"/></g><g transform="translate(-262,-366) scale(1,1)"><path d="M 641.7358200749934 911.6585925329292 L 647 902 L 636.4480064008897 905.1073189543937" fill="none" stroke="#000000" stroke-miterlimit="10"/></g><g transform="translate(-262,-366) scale(1,1)"><g><path fill="none" stroke="none"/><text fill="#000000" font-family="Arial" font-size="13px" font-style="normal" font-weight="normal" stroke="none" text-decoration="none" x="548.5" y="952.5">+owns</text></g></g><g transform="translate(-262,-366) scale(1,1)"><path d="M 447 576 L 447 1016" fill="none" stroke="#000000" stroke-miterlimit="10"/></g><g transform="translate(-262,-366) scale(1,1)"><path d="M 442.790482243984 1005.8373251423759 L 447 1016 L 451.209517756016 1005.8373251423759" fill="none" stroke="#000000" stroke-miterlimit="10"/></g><g transform="translate(-262,-366) scale(1,1)"><g><path fill="none" stroke="none"/><text fill="#000000" font-family="Arial" font-size="13px" font-style="normal" font-weight="normal" stroke="none" text-decoration="none" x="445.5" y="801.5">+calls</text></g></g><g transform="translate(-262,-366) scale(1,1)"><path d="M 560 1048 L 976 1048" fill="none" stroke="#000000" stroke-miterlimit="10"/></g><g transform="translate(-262,-366) scale(1,1)"><path d="M 965.8373251423759 1052.2095177560159 L 976 1048 L 965.8373251423758 1043.7904822439841" fill="none" stroke="#000000" stroke-miterlimit="10"/></g><g transform="translate(-262,-366) scale(1,1)"><g><path fill="none" stroke="none"/><text fill="#000000" font-family="Arial" font-size="13px" font-style="normal" font-weight="normal" stroke="none" text-decoration="none" x="749.5" y="1039.5">+owns</text></g></g></g></svg>